<svg width="427" height="36" viewBox="0 0 427 36" fill="none" xmlns="http://www.w3.org/2000/svg">
<path d="M0.264 35V1.4H13.752C17.24 1.4 19.896 2.216 21.72 3.848C23.576 5.448 24.504 7.512 24.504 10.04C24.504 12.152 23.928 13.848 22.776 15.128C21.656 16.376 20.28 17.224 18.648 17.672C20.568 18.056 22.152 19.016 23.4 20.552C24.648 22.056 25.272 23.816 25.272 25.832C25.272 28.488 24.312 30.68 22.392 32.408C20.472 34.136 17.752 35 14.232 35H0.264ZM6.408 15.512H12.84C14.568 15.512 15.896 15.112 16.824 14.312C17.752 13.512 18.216 12.376 18.216 10.904C18.216 9.496 17.752 8.392 16.824 7.592C15.928 6.76 14.568 6.344 12.744 6.344H6.408V15.512ZM6.408 30.008H13.272C15.096 30.008 16.504 29.592 17.496 28.76C18.52 27.896 19.032 26.696 19.032 25.16C19.032 23.592 18.504 22.36 17.448 21.464C16.392 20.568 14.968 20.12 13.176 20.12H6.408V30.008ZM41.8253 35.576C39.5213 35.576 37.4413 35.048 35.5853 33.992C33.7613 32.936 32.3053 31.48 31.2173 29.624C30.1613 27.736 29.6333 25.56 29.6333 23.096C29.6333 20.632 30.1773 18.472 31.2653 16.616C32.3533 14.728 33.8093 13.256 35.6333 12.2C37.4893 11.144 39.5693 10.616 41.8733 10.616C44.1453 10.616 46.1933 11.144 48.0173 12.2C49.8733 13.256 51.3293 14.728 52.3853 16.616C53.4733 18.472 54.0173 20.632 54.0173 23.096C54.0173 25.56 53.4733 27.736 52.3853 29.624C51.3293 31.48 49.8733 32.936 48.0173 33.992C46.1613 35.048 44.0973 35.576 41.8253 35.576ZM41.8253 30.248C43.4253 30.248 44.8173 29.656 46.0013 28.472C47.1853 27.256 47.7773 25.464 47.7773 23.096C47.7773 20.728 47.1853 18.952 46.0013 17.768C44.8173 16.552 43.4413 15.944 41.8733 15.944C40.2413 15.944 38.8333 16.552 37.6493 17.768C36.4973 18.952 35.9213 20.728 35.9213 23.096C35.9213 25.464 36.4973 27.256 37.6493 28.472C38.8333 29.656 40.2253 30.248 41.8253 30.248ZM62.8226 7.496C61.7026 7.496 60.7746 7.16 60.0386 6.488C59.3346 5.816 58.9826 4.968 58.9826 3.944C58.9826 2.92 59.3346 2.088 60.0386 1.448C60.7746 0.775998 61.7026 0.439999 62.8226 0.439999C63.9426 0.439999 64.8546 0.775998 65.5586 1.448C66.2946 2.088 66.6626 2.92 66.6626 3.944C66.6626 4.968 66.2946 5.816 65.5586 6.488C64.8546 7.16 63.9426 7.496 62.8226 7.496ZM59.7506 35V11.192H65.8946V35H59.7506ZM72.3075 35V0.439999H78.4515V35H72.3075ZM96.2974 35.576C93.8974 35.576 91.7694 35.064 89.9134 34.04C88.0574 33.016 86.6014 31.576 85.5454 29.72C84.4894 27.864 83.9614 25.72 83.9614 23.288C83.9614 20.824 84.4734 18.632 85.4974 16.712C86.5534 14.792 87.9934 13.304 89.8174 12.248C91.6734 11.16 93.8494 10.616 96.3454 10.616C98.6814 10.616 100.745 11.128 102.537 12.152C104.329 13.176 105.721 14.584 106.713 16.376C107.737 18.136 108.249 20.104 108.249 22.28C108.249 22.632 108.233 23 108.201 23.384C108.201 23.768 108.185 24.168 108.153 24.584H90.0574C90.1854 26.44 90.8254 27.896 91.9774 28.952C93.1614 30.008 94.5854 30.536 96.2494 30.536C97.4974 30.536 98.5374 30.264 99.3694 29.72C100.233 29.144 100.873 28.408 101.289 27.512H107.529C107.081 29.016 106.329 30.392 105.273 31.64C104.249 32.856 102.969 33.816 101.433 34.52C99.9294 35.224 98.2174 35.576 96.2974 35.576ZM96.3454 15.608C94.8414 15.608 93.5134 16.04 92.3614 16.904C91.2094 17.736 90.4734 19.016 90.1534 20.744H102.009C101.913 19.176 101.337 17.928 100.281 17C99.2254 16.072 97.9134 15.608 96.3454 15.608ZM113.417 35V11.192H118.889L119.465 15.656C120.329 14.12 121.497 12.904 122.969 12.008C124.473 11.08 126.233 10.616 128.249 10.616V17.096H126.521C125.177 17.096 123.977 17.304 122.921 17.72C121.865 18.136 121.033 18.856 120.425 19.88C119.849 20.904 119.561 22.328 119.561 24.152V35H113.417ZM142.288 35.576C140.176 35.576 138.32 35.24 136.72 34.568C135.12 33.864 133.84 32.904 132.88 31.688C131.92 30.472 131.344 29.064 131.152 27.464H137.344C137.536 28.392 138.048 29.192 138.88 29.864C139.744 30.504 140.848 30.824 142.192 30.824C143.536 30.824 144.512 30.552 145.12 30.008C145.76 29.464 146.08 28.84 146.08 28.136C146.08 27.112 145.632 26.424 144.736 26.072C143.84 25.688 142.592 25.32 140.992 24.968C139.968 24.744 138.928 24.472 137.872 24.152C136.816 23.832 135.84 23.432 134.944 22.952C134.08 22.44 133.376 21.8 132.832 21.032C132.288 20.232 132.016 19.256 132.016 18.104C132.016 15.992 132.848 14.216 134.512 12.776C136.208 11.336 138.576 10.616 141.616 10.616C144.432 10.616 146.672 11.272 148.336 12.584C150.032 13.896 151.04 15.704 151.36 18.008H145.552C145.2 16.248 143.872 15.368 141.568 15.368C140.416 15.368 139.52 15.592 138.88 16.04C138.272 16.488 137.968 17.048 137.968 17.72C137.968 18.424 138.432 18.984 139.36 19.4C140.288 19.816 141.52 20.2 143.056 20.552C144.72 20.936 146.24 21.368 147.616 21.848C149.024 22.296 150.144 22.984 150.976 23.912C151.808 24.808 152.224 26.104 152.224 27.8C152.256 29.272 151.872 30.6 151.072 31.784C150.272 32.968 149.12 33.896 147.616 34.568C146.112 35.24 144.336 35.576 142.288 35.576ZM180 35.528C177.536 35.528 175.392 35.112 173.568 34.28C171.744 33.416 170.32 32.216 169.296 30.68C168.304 29.144 167.808 27.352 167.808 25.304C167.808 23.128 168.416 21.16 169.632 19.4C170.848 17.64 172.656 16.232 175.056 15.176C174.096 14.056 173.408 13 172.992 12.008C172.576 11.016 172.368 9.96 172.368 8.84C172.368 7.304 172.752 5.944 173.52 4.76C174.288 3.544 175.376 2.584 176.784 1.88C178.224 1.176 179.936 0.823999 181.92 0.823999C183.936 0.823999 185.648 1.192 187.056 1.928C188.464 2.664 189.52 3.656 190.224 4.904C190.96 6.152 191.296 7.544 191.232 9.08H185.376C185.376 7.896 185.024 7.016 184.32 6.44C183.648 5.832 182.832 5.528 181.872 5.528C180.784 5.528 179.904 5.832 179.232 6.44C178.592 7.048 178.272 7.832 178.272 8.792C178.272 9.592 178.528 10.408 179.04 11.24C179.552 12.072 180.304 13.032 181.296 14.12L190.704 23.432C191.376 22.344 192.08 21.08 192.816 19.64L193.872 17.528H200.16L198.48 20.792C197.2 23.384 195.92 25.576 194.64 27.368L202.368 35H195.024L191.28 31.256C189.648 32.76 187.904 33.848 186.048 34.52C184.224 35.192 182.208 35.528 180 35.528ZM173.76 24.92C173.76 26.488 174.336 27.816 175.488 28.904C176.672 29.96 178.24 30.488 180.192 30.488C182.976 30.488 185.392 29.496 187.44 27.512L178.56 18.728C176.928 19.432 175.712 20.312 174.912 21.368C174.144 22.424 173.76 23.608 173.76 24.92ZM217.764 35V1.4H239.46V6.344H223.908V15.752H236.484V20.6H223.908V35H217.764ZM252.986 35.576C250.01 35.576 247.706 34.648 246.074 32.792C244.474 30.936 243.674 28.216 243.674 24.632V11.192H249.77V24.056C249.77 26.104 250.186 27.672 251.018 28.76C251.85 29.848 253.162 30.392 254.954 30.392C256.65 30.392 258.042 29.784 259.13 28.568C260.25 27.352 260.81 25.656 260.81 23.48V11.192H266.954V35H261.53L261.05 30.968C260.314 32.376 259.242 33.496 257.834 34.328C256.458 35.16 254.842 35.576 252.986 35.576ZM273.261 35V11.192H278.733L279.309 15.656C280.173 14.12 281.341 12.904 282.813 12.008C284.317 11.08 286.077 10.616 288.093 10.616V17.096H286.365C285.021 17.096 283.821 17.304 282.765 17.72C281.709 18.136 280.877 18.856 280.269 19.88C279.693 20.904 279.405 22.328 279.405 24.152V35H273.261ZM292.292 35V11.192H297.716L298.196 15.224C298.932 13.816 299.988 12.696 301.364 11.864C302.772 11.032 304.42 10.616 306.308 10.616C309.252 10.616 311.54 11.544 313.172 13.4C314.804 15.256 315.62 17.976 315.62 21.56V35H309.476V22.136C309.476 20.088 309.06 18.52 308.228 17.432C307.396 16.344 306.1 15.8 304.34 15.8C302.612 15.8 301.188 16.408 300.068 17.624C298.98 18.84 298.436 20.536 298.436 22.712V35H292.292ZM329.703 35.576C327.655 35.576 325.975 35.256 324.663 34.616C323.351 33.944 322.375 33.064 321.735 31.976C321.095 30.888 320.775 29.688 320.775 28.376C320.775 26.168 321.639 24.376 323.367 23C325.095 21.624 327.687 20.936 331.143 20.936H337.191V20.36C337.191 18.728 336.727 17.528 335.799 16.76C334.871 15.992 333.719 15.608 332.343 15.608C331.095 15.608 330.007 15.912 329.079 16.52C328.151 17.096 327.575 17.96 327.351 19.112H321.351C321.511 17.384 322.087 15.88 323.079 14.6C324.103 13.32 325.415 12.344 327.015 11.672C328.615 10.968 330.407 10.616 332.391 10.616C335.783 10.616 338.455 11.464 340.407 13.16C342.359 14.856 343.335 17.256 343.335 20.36V35H338.103L337.527 31.16C336.823 32.44 335.831 33.496 334.551 34.328C333.303 35.16 331.687 35.576 329.703 35.576ZM331.095 30.776C332.855 30.776 334.215 30.2 335.175 29.048C336.167 27.896 336.791 26.472 337.047 24.776H331.815C330.183 24.776 329.015 25.08 328.311 25.688C327.607 26.264 327.255 26.984 327.255 27.848C327.255 28.776 327.607 29.496 328.311 30.008C329.015 30.52 329.943 30.776 331.095 30.776ZM360.862 35.576C358.43 35.576 356.286 35.048 354.43 33.992C352.574 32.936 351.102 31.464 350.014 29.576C348.958 27.688 348.43 25.528 348.43 23.096C348.43 20.664 348.958 18.504 350.014 16.616C351.102 14.728 352.574 13.256 354.43 12.2C356.286 11.144 358.43 10.616 360.862 10.616C363.902 10.616 366.462 11.416 368.542 13.016C370.622 14.584 371.95 16.76 372.526 19.544H366.046C365.726 18.392 365.086 17.496 364.126 16.856C363.198 16.184 362.094 15.848 360.814 15.848C359.118 15.848 357.678 16.488 356.494 17.768C355.31 19.048 354.718 20.824 354.718 23.096C354.718 25.368 355.31 27.144 356.494 28.424C357.678 29.704 359.118 30.344 360.814 30.344C362.094 30.344 363.198 30.024 364.126 29.384C365.086 28.744 365.726 27.832 366.046 26.648H372.526C371.95 29.336 370.622 31.496 368.542 33.128C366.462 34.76 363.902 35.576 360.862 35.576ZM389.547 35.576C387.147 35.576 385.019 35.064 383.163 34.04C381.307 33.016 379.851 31.576 378.795 29.72C377.739 27.864 377.211 25.72 377.211 23.288C377.211 20.824 377.723 18.632 378.747 16.712C379.803 14.792 381.243 13.304 383.067 12.248C384.923 11.16 387.099 10.616 389.595 10.616C391.931 10.616 393.995 11.128 395.787 12.152C397.579 13.176 398.971 14.584 399.963 16.376C400.987 18.136 401.499 20.104 401.499 22.28C401.499 22.632 401.483 23 401.451 23.384C401.451 23.768 401.435 24.168 401.403 24.584H383.307C383.435 26.44 384.075 27.896 385.227 28.952C386.411 30.008 387.835 30.536 389.499 30.536C390.747 30.536 391.787 30.264 392.619 29.72C393.483 29.144 394.123 28.408 394.539 27.512H400.779C400.331 29.016 399.579 30.392 398.523 31.64C397.499 32.856 396.219 33.816 394.683 34.52C393.179 35.224 391.467 35.576 389.547 35.576ZM389.595 15.608C388.091 15.608 386.763 16.04 385.611 16.904C384.459 17.736 383.723 19.016 383.403 20.744H395.259C395.163 19.176 394.587 17.928 393.531 17C392.475 16.072 391.163 15.608 389.595 15.608ZM416.507 35.576C414.395 35.576 412.539 35.24 410.939 34.568C409.339 33.864 408.059 32.904 407.099 31.688C406.139 30.472 405.563 29.064 405.371 27.464H411.563C411.755 28.392 412.267 29.192 413.099 29.864C413.963 30.504 415.067 30.824 416.411 30.824C417.755 30.824 418.731 30.552 419.339 30.008C419.979 29.464 420.299 28.84 420.299 28.136C420.299 27.112 419.851 26.424 418.955 26.072C418.059 25.688 416.811 25.32 415.211 24.968C414.187 24.744 413.147 24.472 412.091 24.152C411.035 23.832 410.059 23.432 409.163 22.952C408.299 22.44 407.595 21.8 407.051 21.032C406.507 20.232 406.235 19.256 406.235 18.104C406.235 15.992 407.067 14.216 408.731 12.776C410.427 11.336 412.795 10.616 415.835 10.616C418.651 10.616 420.891 11.272 422.555 12.584C424.251 13.896 425.259 15.704 425.579 18.008H419.771C419.419 16.248 418.091 15.368 415.787 15.368C414.635 15.368 413.739 15.592 413.099 16.04C412.491 16.488 412.187 17.048 412.187 17.72C412.187 18.424 412.651 18.984 413.579 19.4C414.507 19.816 415.739 20.2 417.275 20.552C418.939 20.936 420.459 21.368 421.835 21.848C423.243 22.296 424.363 22.984 425.195 23.912C426.027 24.808 426.443 26.104 426.443 27.8C426.475 29.272 426.091 30.6 425.291 31.784C424.491 32.968 423.339 33.896 421.835 34.568C420.331 35.24 418.555 35.576 416.507 35.576Z" fill="white"/>
</svg>
