<svg width="639" height="83" viewBox="0 0 639 83" fill="none" xmlns="http://www.w3.org/2000/svg">
<path d="M1.472 63L17.856 18.2H27.072L43.456 63H34.752L31.168 52.632H13.696L10.048 63H1.472ZM15.936 46.232H28.928L22.4 27.608L15.936 46.232ZM67.851 63.768C65.4617 63.768 63.371 63.32 61.579 62.424C59.787 61.528 58.3363 60.2693 57.227 58.648L56.331 63H49.035V16.92H57.227V35.8C58.251 34.392 59.595 33.1547 61.259 32.088C62.9657 31.0213 65.163 30.488 67.851 30.488C70.8377 30.488 73.5043 31.2133 75.851 32.664C78.1977 34.1147 80.0537 36.0987 81.419 38.616C82.7843 41.1333 83.467 43.992 83.467 47.192C83.467 50.392 82.7843 53.2507 81.419 55.768C80.0537 58.2427 78.1977 60.2053 75.851 61.656C73.5043 63.064 70.8377 63.768 67.851 63.768ZM66.123 56.6C68.7257 56.6 70.8803 55.7253 72.587 53.976C74.2937 52.2267 75.147 49.9653 75.147 47.192C75.147 44.4187 74.2937 42.136 72.587 40.344C70.8803 38.552 68.7257 37.656 66.123 37.656C63.4777 37.656 61.3017 38.552 59.595 40.344C57.931 42.0933 57.099 44.3547 57.099 47.128C57.099 49.9013 57.931 52.184 59.595 53.976C61.3017 55.7253 63.4777 56.6 66.123 56.6ZM106.017 63.768C102.945 63.768 100.172 63.064 97.697 61.656C95.265 60.248 93.3237 58.3067 91.873 55.832C90.465 53.3147 89.761 50.4133 89.761 47.128C89.761 43.8427 90.4863 40.9627 91.937 38.488C93.3877 35.9707 95.329 34.008 97.761 32.6C100.236 31.192 103.009 30.488 106.081 30.488C109.11 30.488 111.841 31.192 114.273 32.6C116.748 34.008 118.689 35.9707 120.097 38.488C121.548 40.9627 122.273 43.8427 122.273 47.128C122.273 50.4133 121.548 53.3147 120.097 55.832C118.689 58.3067 116.748 60.248 114.273 61.656C111.798 63.064 109.046 63.768 106.017 63.768ZM106.017 56.664C108.15 56.664 110.006 55.8747 111.585 54.296C113.164 52.6747 113.953 50.2853 113.953 47.128C113.953 43.9707 113.164 41.6027 111.585 40.024C110.006 38.4027 108.172 37.592 106.081 37.592C103.905 37.592 102.028 38.4027 100.449 40.024C98.913 41.6027 98.145 43.9707 98.145 47.128C98.145 50.2853 98.913 52.6747 100.449 54.296C102.028 55.8747 103.884 56.664 106.017 56.664ZM141.502 63.768C137.534 63.768 134.462 62.5307 132.286 60.056C130.152 57.5813 129.086 53.9547 129.086 49.176V31.256H137.214V48.408C137.214 51.1387 137.768 53.2293 138.878 54.68C139.987 56.1307 141.736 56.856 144.126 56.856C146.387 56.856 148.243 56.0453 149.694 54.424C151.187 52.8027 151.934 50.5413 151.934 47.64V31.256H160.126V63H152.894L152.254 57.624C151.272 59.5013 149.843 60.9947 147.966 62.104C146.131 63.2133 143.976 63.768 141.502 63.768ZM182.679 63C179.351 63 176.684 62.1893 174.679 60.568C172.674 58.9467 171.671 56.0667 171.671 51.928V38.104H166.231V31.256H171.671L172.631 22.744H179.863V31.256H188.439V38.104H179.863V51.992C179.863 53.528 180.183 54.5947 180.823 55.192C181.506 55.7467 182.658 56.024 184.279 56.024H188.247V63H182.679ZM228.195 63.768C224.909 63.768 221.944 63.128 219.299 61.848C216.653 60.5253 214.541 58.5413 212.963 55.896C211.427 53.2507 210.659 49.9013 210.659 45.848V18.2H218.851V45.912C218.851 49.4107 219.683 52.0133 221.347 53.72C223.053 55.4267 225.4 56.28 228.387 56.28C231.331 56.28 233.656 55.4267 235.363 53.72C237.069 52.0133 237.923 49.4107 237.923 45.912V18.2H246.115V45.848C246.115 49.9013 245.304 53.2507 243.683 55.896C242.061 58.5413 239.885 60.5253 237.155 61.848C234.467 63.128 231.48 63.768 228.195 63.768ZM267.405 63.768C264.589 63.768 262.114 63.32 259.981 62.424C257.848 61.4853 256.141 60.2053 254.861 58.584C253.581 56.9627 252.813 55.0853 252.557 52.952H260.813C261.069 54.1893 261.752 55.256 262.861 56.152C264.013 57.0053 265.485 57.432 267.277 57.432C269.069 57.432 270.37 57.0693 271.181 56.344C272.034 55.6187 272.461 54.7867 272.461 53.848C272.461 52.4827 271.864 51.5653 270.669 51.096C269.474 50.584 267.81 50.0933 265.677 49.624C264.312 49.3253 262.925 48.9627 261.517 48.536C260.109 48.1093 258.808 47.576 257.613 46.936C256.461 46.2533 255.522 45.4 254.797 44.376C254.072 43.3093 253.709 42.008 253.709 40.472C253.709 37.656 254.818 35.288 257.037 33.368C259.298 31.448 262.456 30.488 266.509 30.488C270.264 30.488 273.25 31.3627 275.469 33.112C277.73 34.8613 279.074 37.272 279.501 40.344H271.757C271.288 37.9973 269.517 36.824 266.445 36.824C264.909 36.824 263.714 37.1227 262.861 37.72C262.05 38.3173 261.645 39.064 261.645 39.96C261.645 40.8987 262.264 41.6453 263.501 42.2C264.738 42.7547 266.381 43.2667 268.429 43.736C270.648 44.248 272.674 44.824 274.509 45.464C276.386 46.0613 277.88 46.9787 278.989 48.216C280.098 49.4107 280.653 51.1387 280.653 53.4C280.696 55.3627 280.184 57.1333 279.117 58.712C278.05 60.2907 276.514 61.528 274.509 62.424C272.504 63.32 270.136 63.768 267.405 63.768Z" fill="black"/>
<g filter="url(#filter0_d)">
<path d="M7.472 63L23.856 18.2H33.072L49.456 63H40.752L37.168 52.632H19.696L16.048 63H7.472ZM21.936 46.232H34.928L28.4 27.608L21.936 46.232ZM73.851 63.768C71.4617 63.768 69.371 63.32 67.579 62.424C65.787 61.528 64.3363 60.2693 63.227 58.648L62.331 63H55.035V16.92H63.227V35.8C64.251 34.392 65.595 33.1547 67.259 32.088C68.9657 31.0213 71.163 30.488 73.851 30.488C76.8377 30.488 79.5043 31.2133 81.851 32.664C84.1977 34.1147 86.0537 36.0987 87.419 38.616C88.7843 41.1333 89.467 43.992 89.467 47.192C89.467 50.392 88.7843 53.2507 87.419 55.768C86.0537 58.2427 84.1977 60.2053 81.851 61.656C79.5043 63.064 76.8377 63.768 73.851 63.768ZM72.123 56.6C74.7257 56.6 76.8803 55.7253 78.587 53.976C80.2937 52.2267 81.147 49.9653 81.147 47.192C81.147 44.4187 80.2937 42.136 78.587 40.344C76.8803 38.552 74.7257 37.656 72.123 37.656C69.4777 37.656 67.3017 38.552 65.595 40.344C63.931 42.0933 63.099 44.3547 63.099 47.128C63.099 49.9013 63.931 52.184 65.595 53.976C67.3017 55.7253 69.4777 56.6 72.123 56.6ZM112.017 63.768C108.945 63.768 106.172 63.064 103.697 61.656C101.265 60.248 99.3237 58.3067 97.873 55.832C96.465 53.3147 95.761 50.4133 95.761 47.128C95.761 43.8427 96.4863 40.9627 97.937 38.488C99.3877 35.9707 101.329 34.008 103.761 32.6C106.236 31.192 109.009 30.488 112.081 30.488C115.11 30.488 117.841 31.192 120.273 32.6C122.748 34.008 124.689 35.9707 126.097 38.488C127.548 40.9627 128.273 43.8427 128.273 47.128C128.273 50.4133 127.548 53.3147 126.097 55.832C124.689 58.3067 122.748 60.248 120.273 61.656C117.798 63.064 115.046 63.768 112.017 63.768ZM112.017 56.664C114.15 56.664 116.006 55.8747 117.585 54.296C119.164 52.6747 119.953 50.2853 119.953 47.128C119.953 43.9707 119.164 41.6027 117.585 40.024C116.006 38.4027 114.172 37.592 112.081 37.592C109.905 37.592 108.028 38.4027 106.449 40.024C104.913 41.6027 104.145 43.9707 104.145 47.128C104.145 50.2853 104.913 52.6747 106.449 54.296C108.028 55.8747 109.884 56.664 112.017 56.664ZM147.502 63.768C143.534 63.768 140.462 62.5307 138.286 60.056C136.152 57.5813 135.086 53.9547 135.086 49.176V31.256H143.214V48.408C143.214 51.1387 143.768 53.2293 144.878 54.68C145.987 56.1307 147.736 56.856 150.126 56.856C152.387 56.856 154.243 56.0453 155.694 54.424C157.187 52.8027 157.934 50.5413 157.934 47.64V31.256H166.126V63H158.894L158.254 57.624C157.272 59.5013 155.843 60.9947 153.966 62.104C152.131 63.2133 149.976 63.768 147.502 63.768ZM188.679 63C185.351 63 182.684 62.1893 180.679 60.568C178.674 58.9467 177.671 56.0667 177.671 51.928V38.104H172.231V31.256H177.671L178.631 22.744H185.863V31.256H194.439V38.104H185.863V51.992C185.863 53.528 186.183 54.5947 186.823 55.192C187.506 55.7467 188.658 56.024 190.279 56.024H194.247V63H188.679ZM234.195 63.768C230.909 63.768 227.944 63.128 225.299 61.848C222.653 60.5253 220.541 58.5413 218.963 55.896C217.427 53.2507 216.659 49.9013 216.659 45.848V18.2H224.851V45.912C224.851 49.4107 225.683 52.0133 227.347 53.72C229.053 55.4267 231.4 56.28 234.387 56.28C237.331 56.28 239.656 55.4267 241.363 53.72C243.069 52.0133 243.923 49.4107 243.923 45.912V18.2H252.115V45.848C252.115 49.9013 251.304 53.2507 249.683 55.896C248.061 58.5413 245.885 60.5253 243.155 61.848C240.467 63.128 237.48 63.768 234.195 63.768ZM273.405 63.768C270.589 63.768 268.114 63.32 265.981 62.424C263.848 61.4853 262.141 60.2053 260.861 58.584C259.581 56.9627 258.813 55.0853 258.557 52.952H266.813C267.069 54.1893 267.752 55.256 268.861 56.152C270.013 57.0053 271.485 57.432 273.277 57.432C275.069 57.432 276.37 57.0693 277.181 56.344C278.034 55.6187 278.461 54.7867 278.461 53.848C278.461 52.4827 277.864 51.5653 276.669 51.096C275.474 50.584 273.81 50.0933 271.677 49.624C270.312 49.3253 268.925 48.9627 267.517 48.536C266.109 48.1093 264.808 47.576 263.613 46.936C262.461 46.2533 261.522 45.4 260.797 44.376C260.072 43.3093 259.709 42.008 259.709 40.472C259.709 37.656 260.818 35.288 263.037 33.368C265.298 31.448 268.456 30.488 272.509 30.488C276.264 30.488 279.25 31.3627 281.469 33.112C283.73 34.8613 285.074 37.272 285.501 40.344H277.757C277.288 37.9973 275.517 36.824 272.445 36.824C270.909 36.824 269.714 37.1227 268.861 37.72C268.05 38.3173 267.645 39.064 267.645 39.96C267.645 40.8987 268.264 41.6453 269.501 42.2C270.738 42.7547 272.381 43.2667 274.429 43.736C276.648 44.248 278.674 44.824 280.509 45.464C282.386 46.0613 283.88 46.9787 284.989 48.216C286.098 49.4107 286.653 51.1387 286.653 53.4C286.696 55.3627 286.184 57.1333 285.117 58.712C284.05 60.2907 282.514 61.528 280.509 62.424C278.504 63.32 276.136 63.768 273.405 63.768Z" fill="white"/>
<path d="M7.472 63L6.53284 62.6565L6.04151 64H7.472V63ZM23.856 18.2V17.2H23.1569L22.9168 17.8565L23.856 18.2ZM33.072 18.2L34.0112 17.8565L33.7711 17.2H33.072V18.2ZM49.456 63V64H50.8865L50.3952 62.6565L49.456 63ZM40.752 63L39.8069 63.3267L40.0396 64H40.752V63ZM37.168 52.632L38.1131 52.3053L37.8804 51.632H37.168V52.632ZM19.696 52.632V51.632H18.9878L18.7527 52.3001L19.696 52.632ZM16.048 63V64H16.7562L16.9913 63.3319L16.048 63ZM21.936 46.232L20.9913 45.9041L20.5304 47.232H21.936V46.232ZM34.928 46.232V47.232H36.3382L35.8717 45.9012L34.928 46.232ZM28.4 27.608L29.3437 27.2772L28.3953 24.5716L27.4553 27.2801L28.4 27.608ZM8.41117 63.3435L24.7952 18.5435L22.9168 17.8565L6.53284 62.6565L8.41117 63.3435ZM23.856 19.2H33.072V17.2H23.856V19.2ZM32.1328 18.5435L48.5168 63.3435L50.3952 62.6565L34.0112 17.8565L32.1328 18.5435ZM49.456 62H40.752V64H49.456V62ZM41.6971 62.6733L38.1131 52.3053L36.2229 52.9587L39.8069 63.3267L41.6971 62.6733ZM37.168 51.632H19.696V53.632H37.168V51.632ZM18.7527 52.3001L15.1047 62.6681L16.9913 63.3319L20.6393 52.9639L18.7527 52.3001ZM16.048 62H7.472V64H16.048V62ZM21.936 47.232H34.928V45.232H21.936V47.232ZM35.8717 45.9012L29.3437 27.2772L27.4563 27.9388L33.9843 46.5628L35.8717 45.9012ZM27.4553 27.2801L20.9913 45.9041L22.8807 46.5599L29.3447 27.9359L27.4553 27.2801ZM63.227 58.648L64.0523 58.0833L62.7224 56.1397L62.2475 58.4463L63.227 58.648ZM62.331 63V64H63.1461L63.3105 63.2017L62.331 63ZM55.035 63H54.035V64H55.035V63ZM55.035 16.92V15.92H54.035V16.92H55.035ZM63.227 16.92H64.227V15.92H63.227V16.92ZM63.227 35.8H62.227V38.8752L64.0357 36.3882L63.227 35.8ZM67.259 32.088L66.729 31.2399L66.7193 31.2461L67.259 32.088ZM81.851 32.664L82.3768 31.8134L81.851 32.664ZM87.419 38.616L86.54 39.0928L87.419 38.616ZM87.419 55.768L88.2946 56.2511L88.298 56.2448L87.419 55.768ZM81.851 61.656L82.3655 62.5136L82.3768 62.5066L81.851 61.656ZM78.587 53.976L79.3028 54.6743L78.587 53.976ZM78.587 40.344L79.3111 39.6543L78.587 40.344ZM65.595 40.344L64.8709 39.6543L64.8704 39.6548L65.595 40.344ZM65.595 53.976L64.8622 54.6565L64.8706 54.6655L64.8792 54.6743L65.595 53.976ZM73.851 62.768C71.5873 62.768 69.6551 62.344 68.0262 61.5296L67.1318 63.3184C69.0869 64.296 71.3361 64.768 73.851 64.768V62.768ZM68.0262 61.5296C66.3831 60.708 65.0637 59.5615 64.0523 58.0833L62.4017 59.2127C63.609 60.9772 65.1909 62.348 67.1318 63.3184L68.0262 61.5296ZM62.2475 58.4463L61.3515 62.7983L63.3105 63.2017L64.2065 58.8497L62.2475 58.4463ZM62.331 62H55.035V64H62.331V62ZM56.035 63V16.92H54.035V63H56.035ZM55.035 17.92H63.227V15.92H55.035V17.92ZM62.227 16.92V35.8H64.227V16.92H62.227ZM64.0357 36.3882C64.9774 35.0934 66.2253 33.9384 67.7987 32.9299L66.7193 31.2461C64.9647 32.3709 63.5246 33.6906 62.4183 35.2118L64.0357 36.3882ZM67.789 32.936C69.2918 31.9968 71.2892 31.488 73.851 31.488V29.488C71.0368 29.488 68.6396 30.0459 66.729 31.24L67.789 32.936ZM73.851 31.488C76.6678 31.488 79.1495 32.1696 81.3252 33.5146L82.3768 31.8134C79.8591 30.257 77.0075 29.488 73.851 29.488V31.488ZM81.3252 33.5146C83.5178 34.87 85.2545 36.7226 86.54 39.0928L88.298 38.1392C86.8529 35.4747 84.8776 33.3593 82.3768 31.8134L81.3252 33.5146ZM86.54 39.0928C87.8169 41.4472 88.467 44.1386 88.467 47.192H90.467C90.467 43.8454 89.7517 40.8195 88.298 38.1392L86.54 39.0928ZM88.467 47.192C88.467 50.2454 87.8169 52.9368 86.54 55.2912L88.298 56.2448C89.7517 53.5645 90.467 50.5386 90.467 47.192H88.467ZM86.5434 55.2849C85.259 57.6129 83.5219 59.4474 81.3252 60.8054L82.3768 62.5066C84.8734 60.9632 86.8483 58.8724 88.2946 56.2511L86.5434 55.2849ZM81.3365 60.7985C79.1593 62.1048 76.6735 62.768 73.851 62.768V64.768C77.0018 64.768 79.8494 64.0232 82.3655 62.5135L81.3365 60.7985ZM72.123 57.6C74.9757 57.6 77.3947 56.6301 79.3028 54.6743L77.8712 53.2777C76.3659 54.8206 74.4756 55.6 72.123 55.6V57.6ZM79.3028 54.6743C81.2167 52.7126 82.147 50.1881 82.147 47.192H80.147C80.147 49.7425 79.3707 51.7408 77.8712 53.2777L79.3028 54.6743ZM82.147 47.192C82.147 44.1955 81.2168 41.6553 79.3111 39.6543L77.8629 41.0337C79.3705 42.6167 80.147 44.6418 80.147 47.192H82.147ZM79.3111 39.6543C77.4051 37.653 74.9835 36.656 72.123 36.656V38.656C74.4679 38.656 76.3556 39.451 77.8629 41.0337L79.3111 39.6543ZM72.123 36.656C69.2251 36.656 66.7803 37.6494 64.8709 39.6543L66.3191 41.0337C67.823 39.4546 69.7303 38.656 72.123 38.656V36.656ZM64.8704 39.6548C63.0032 41.6178 62.099 44.1392 62.099 47.128H64.099C64.099 44.5702 64.8588 42.5689 66.3196 41.0332L64.8704 39.6548ZM62.099 47.128C62.099 50.1173 63.0032 52.6544 64.8622 54.6565L66.3278 53.2955C64.8588 51.7136 64.099 49.6854 64.099 47.128H62.099ZM64.8792 54.6743C66.7906 56.6335 69.2328 57.6 72.123 57.6V55.6C69.7226 55.6 67.8127 54.8172 66.3108 53.2777L64.8792 54.6743ZM103.697 61.656L103.196 62.5215L103.202 62.5252L103.697 61.656ZM97.873 55.832L97.0002 56.3202L97.0052 56.329L97.0103 56.3377L97.873 55.832ZM97.937 38.488L98.7997 38.9937L98.8034 38.9873L97.937 38.488ZM103.761 32.6L103.266 31.7308L103.26 31.7346L103.761 32.6ZM120.273 32.6L119.772 33.4655L119.778 33.4692L120.273 32.6ZM126.097 38.488L125.224 38.9762L125.229 38.985L125.234 38.9937L126.097 38.488ZM126.097 55.832L125.231 55.3327L125.228 55.3375L126.097 55.832ZM120.273 61.656L119.778 60.7868L120.273 61.656ZM117.585 54.296L118.292 55.0032L118.301 54.9936L117.585 54.296ZM117.585 40.024L116.868 40.7217L116.878 40.7311L117.585 40.024ZM106.449 40.024L105.733 39.3264L105.732 39.3266L106.449 40.024ZM106.449 54.296L105.723 54.9837L105.732 54.9936L105.742 55.0031L106.449 54.296ZM112.017 62.768C109.104 62.768 106.504 62.1024 104.192 60.7868L103.202 62.5252C105.84 64.0256 108.786 64.768 112.017 64.768V62.768ZM104.198 60.7906C101.919 59.4711 100.101 57.655 98.7357 55.3263L97.0103 56.3377C98.5465 58.9583 100.611 61.0249 103.196 62.5214L104.198 60.7906ZM98.7458 55.3438C97.4322 52.9954 96.761 50.2665 96.761 47.128H94.761C94.761 50.5602 95.4978 53.6339 97.0002 56.3202L98.7458 55.3438ZM96.761 47.128C96.761 43.9942 97.4513 41.2938 98.7997 38.9937L97.0743 37.9823C95.5213 40.6315 94.761 43.6911 94.761 47.128H96.761ZM98.8034 38.9873C100.17 36.6166 101.987 34.7825 104.262 33.4654L103.26 31.7346C100.671 33.2335 98.6057 35.3248 97.0706 37.9887L98.8034 38.9873ZM104.256 33.4692C106.568 32.1536 109.168 31.488 112.081 31.488V29.488C108.85 29.488 105.904 30.2304 103.266 31.7308L104.256 33.4692ZM112.081 31.488C114.949 31.488 117.504 32.1524 119.772 33.4654L120.774 31.7346C118.178 30.2316 115.272 29.488 112.081 29.488V31.488ZM119.778 33.4692C122.093 34.7858 123.904 36.6157 125.224 38.9762L126.97 37.9998C125.474 35.3256 123.403 33.2302 120.768 31.7308L119.778 33.4692ZM125.234 38.9937C126.583 41.2938 127.273 43.9942 127.273 47.128H129.273C129.273 43.6911 128.513 40.6315 126.96 37.9823L125.234 38.9937ZM127.273 47.128C127.273 50.2614 126.583 52.9862 125.231 55.3327L126.963 56.3313C128.513 53.6431 129.273 50.5652 129.273 47.128H127.273ZM125.228 55.3375C123.909 57.6558 122.097 59.4678 119.778 60.7868L120.768 62.5252C123.398 61.0282 125.469 58.9575 126.966 56.3265L125.228 55.3375ZM119.778 60.7868C117.464 62.1036 114.884 62.768 112.017 62.768V64.768C115.208 64.768 118.132 64.0244 120.768 62.5252L119.778 60.7868ZM112.017 57.664C114.429 57.664 116.536 56.7596 118.292 55.0031L116.878 53.5889C115.477 54.9897 113.872 55.664 112.017 55.664V57.664ZM118.301 54.9936C120.124 53.1223 120.953 50.4417 120.953 47.128H118.953C118.953 50.129 118.204 52.2271 116.869 53.5984L118.301 54.9936ZM120.953 47.128C120.953 43.8165 120.124 41.1492 118.292 39.3169L116.878 40.7311C118.203 42.0561 118.953 44.1248 118.953 47.128H120.953ZM118.301 39.3264C116.552 37.5294 114.465 36.592 112.081 36.592V38.592C113.878 38.592 115.461 39.276 116.869 40.7216L118.301 39.3264ZM112.081 36.592C109.623 36.592 107.491 37.5204 105.733 39.3264L107.165 40.7216C108.564 39.285 110.187 38.592 112.081 38.592V36.592ZM105.732 39.3266C103.949 41.1598 103.145 43.8233 103.145 47.128H105.145C105.145 44.118 105.877 42.0455 107.166 40.7214L105.732 39.3266ZM103.145 47.128C103.145 50.435 103.95 53.1117 105.723 54.9837L107.175 53.6083C105.876 52.2376 105.145 50.1356 105.145 47.128H103.145ZM105.742 55.0031C107.498 56.7596 109.605 57.664 112.017 57.664V55.664C110.162 55.664 108.557 54.9897 107.156 53.5889L105.742 55.0031ZM138.286 60.056L137.528 60.709L137.535 60.7163L138.286 60.056ZM135.085 31.256V30.256H134.085V31.256H135.085ZM143.214 31.256H144.214V30.256H143.214V31.256ZM144.878 54.68L144.083 55.2874L144.878 54.68ZM155.693 54.424L154.958 53.7465L154.953 53.7518L154.948 53.7572L155.693 54.424ZM157.934 31.256V30.256H156.934V31.256H157.934ZM166.126 31.256H167.126V30.256H166.126V31.256ZM166.126 63V64H167.126V63H166.126ZM158.893 63L157.901 63.1182L158.005 64H158.893V63ZM158.254 57.624L159.246 57.5058L158.864 54.2966L157.367 57.1607L158.254 57.624ZM153.965 62.104L153.457 61.243L153.448 61.2483L153.965 62.104ZM147.501 62.768C143.757 62.768 140.984 61.6105 139.036 59.3957L137.535 60.7163C139.939 63.4508 143.31 64.768 147.501 64.768V62.768ZM139.043 59.4031C137.125 57.1779 136.085 53.8233 136.085 49.176H134.085C134.085 54.086 135.18 57.9848 137.528 60.7089L139.043 59.4031ZM136.085 49.176V31.256H134.085V49.176H136.085ZM135.085 32.256H143.214V30.256H135.085V32.256ZM142.214 31.256V48.408H144.214V31.256H142.214ZM142.214 48.408C142.214 51.2545 142.789 53.5948 144.083 55.2874L145.672 54.0725C144.748 52.8638 144.214 51.0228 144.214 48.408H142.214ZM144.083 55.2874C145.437 57.0582 147.529 57.856 150.126 57.856V55.856C147.943 55.856 146.536 55.2032 145.672 54.0725L144.083 55.2874ZM150.126 57.856C152.659 57.856 154.79 56.9335 156.439 55.0908L154.948 53.7572C153.696 55.1572 152.115 55.856 150.126 55.856V57.856ZM156.429 55.1015C158.141 53.2433 158.934 50.711 158.934 47.64H156.934C156.934 50.3717 156.233 52.362 154.958 53.7465L156.429 55.1015ZM158.934 47.64V31.256H156.934V47.64H158.934ZM157.934 32.256H166.126V30.256H157.934V32.256ZM165.126 31.256V63H167.126V31.256H165.126ZM166.126 62H158.893V64H166.126V62ZM159.886 62.8818L159.246 57.5058L157.261 57.7422L157.901 63.1182L159.886 62.8818ZM157.367 57.1607C156.475 58.8679 155.179 60.2256 153.457 61.2431L154.474 62.9649C156.507 61.7637 158.069 60.1348 159.14 58.0873L157.367 57.1607ZM153.448 61.2483C151.792 62.2494 149.822 62.768 147.501 62.768V64.768C150.13 64.768 152.469 64.1772 154.483 62.9597L153.448 61.2483ZM180.679 60.568L181.308 59.7904L180.679 60.568ZM177.671 38.104H178.671V37.104H177.671V38.104ZM172.231 38.104H171.231V39.104H172.231V38.104ZM172.231 31.256V30.256H171.231V31.256H172.231ZM177.671 31.256V32.256H178.565L178.665 31.3681L177.671 31.256ZM178.631 22.744V21.744H177.737L177.637 22.6319L178.631 22.744ZM185.863 22.744H186.863V21.744H185.863V22.744ZM185.863 31.256H184.863V32.256H185.863V31.256ZM194.439 31.256H195.439V30.256H194.439V31.256ZM194.439 38.104V39.104H195.439V38.104H194.439ZM185.863 38.104V37.104H184.863V38.104H185.863ZM186.823 55.192L186.141 55.9231L186.166 55.9465L186.192 55.9681L186.823 55.192ZM194.247 56.024H195.247V55.024H194.247V56.024ZM194.247 63V64H195.247V63H194.247ZM188.679 62C185.512 62 183.089 61.2305 181.308 59.7904L180.05 61.3456C182.28 63.1482 185.19 64 188.679 64V62ZM181.308 59.7904C179.649 58.4494 178.671 55.9464 178.671 51.928H176.671C176.671 56.187 177.698 59.4439 180.05 61.3456L181.308 59.7904ZM178.671 51.928V38.104H176.671V51.928H178.671ZM177.671 37.104H172.231V39.104H177.671V37.104ZM173.231 38.104V31.256H171.231V38.104H173.231ZM172.231 32.256H177.671V30.256H172.231V32.256ZM178.665 31.3681L179.625 22.8561L177.637 22.6319L176.677 31.1439L178.665 31.3681ZM178.631 23.744H185.863V21.744H178.631V23.744ZM184.863 22.744V31.256H186.863V22.744H184.863ZM185.863 32.256H194.439V30.256H185.863V32.256ZM193.439 31.256V38.104H195.439V31.256H193.439ZM194.439 37.104H185.863V39.104H194.439V37.104ZM184.863 38.104V51.992H186.863V38.104H184.863ZM184.863 51.992C184.863 53.6099 185.19 55.0354 186.141 55.9231L187.505 54.4609C187.176 54.154 186.863 53.4461 186.863 51.992H184.863ZM186.192 55.9681C187.151 56.7472 188.598 57.024 190.279 57.024V55.024C188.717 55.024 187.86 54.7461 187.454 54.4159L186.192 55.9681ZM190.279 57.024H194.247V55.024H190.279V57.024ZM193.247 56.024V63H195.247V56.024H193.247ZM194.247 62H188.679V64H194.247V62ZM225.299 61.848L224.851 62.7425L224.863 62.7482L225.299 61.848ZM218.962 55.896L218.098 56.3982L218.104 56.4085L218.962 55.896ZM216.658 18.2V17.2H215.658V18.2H216.658ZM224.85 18.2H225.85V17.2H224.85V18.2ZM227.346 53.72L226.63 54.4182L226.639 54.4271L227.346 53.72ZM241.363 53.72L240.655 53.0129L241.363 53.72ZM243.923 18.2V17.2H242.923V18.2H243.923ZM252.115 18.2H253.115V17.2H252.115V18.2ZM249.682 55.896L248.83 55.3734L249.682 55.896ZM243.154 61.848L243.584 62.7509L243.59 62.748L243.154 61.848ZM234.195 62.768C231.042 62.768 228.228 62.1547 225.734 60.9478L224.863 62.7482C227.659 64.1013 230.776 64.768 234.195 64.768V62.768ZM225.746 60.9536C223.279 59.72 221.306 57.872 219.821 55.3835L218.104 56.4085C219.776 59.2106 222.028 61.3307 224.851 62.7424L225.746 60.9536ZM219.827 55.3939C218.404 52.9428 217.658 49.7805 217.658 45.848H215.658C215.658 50.0221 216.449 53.5585 218.098 56.3981L219.827 55.3939ZM217.658 45.848V18.2H215.658V45.848H217.658ZM216.658 19.2H224.85V17.2H216.658V19.2ZM223.85 18.2V45.912H225.85V18.2H223.85ZM223.85 45.912C223.85 49.5503 224.714 52.4529 226.63 54.4181L228.062 53.0219C226.651 51.5737 225.85 49.271 225.85 45.912H223.85ZM226.639 54.4271C228.576 56.3637 231.201 57.28 234.387 57.28V55.28C231.598 55.28 229.53 54.4896 228.054 53.0129L226.639 54.4271ZM234.387 57.28C237.534 57.28 240.136 56.3611 242.07 54.4271L240.655 53.0129C239.176 54.4923 237.127 55.28 234.387 55.28V57.28ZM242.07 54.4271C244.034 52.4626 244.923 49.5565 244.923 45.912H242.923C242.923 49.2649 242.104 51.564 240.655 53.0129L242.07 54.4271ZM244.923 45.912V18.2H242.923V45.912H244.923ZM243.923 19.2H252.115V17.2H243.923V19.2ZM251.115 18.2V45.848H253.115V18.2H251.115ZM251.115 45.848C251.115 49.7722 250.33 52.9267 248.83 55.3734L250.535 56.4186C252.278 53.5747 253.115 50.0305 253.115 45.848H251.115ZM248.83 55.3734C247.306 57.8596 245.273 59.7107 242.719 60.948L243.59 62.748C246.497 61.34 248.816 59.2231 250.535 56.4186L248.83 55.3734ZM242.725 60.9451C240.184 62.1548 237.347 62.768 234.195 62.768V64.768C237.613 64.768 240.749 64.1012 243.584 62.7509L242.725 60.9451ZM265.981 62.424L265.578 63.3393L265.586 63.3427L265.594 63.346L265.981 62.424ZM260.861 58.584L260.076 59.2036L260.861 58.584ZM258.557 52.952V51.952H257.43L257.564 53.0711L258.557 52.952ZM266.813 52.952L267.792 52.7494L267.627 51.952H266.813V52.952ZM268.861 56.152L268.233 56.9299L268.249 56.9431L268.266 56.9556L268.861 56.152ZM277.181 56.344L276.533 55.5821L276.524 55.5903L276.514 55.5988L277.181 56.344ZM276.669 51.096L276.275 52.0151L276.289 52.0212L276.303 52.0268L276.669 51.096ZM271.677 49.624L271.892 48.6474L271.891 48.6471L271.677 49.624ZM267.517 48.536L267.227 49.493L267.517 48.536ZM263.613 46.936L263.103 47.7963L263.122 47.8073L263.141 47.8175L263.613 46.936ZM260.797 44.376L259.97 44.9383L259.975 44.9462L259.981 44.954L260.797 44.376ZM263.037 33.368L262.39 32.6057L262.383 32.6118L263.037 33.368ZM281.469 33.112L280.85 33.8973L280.857 33.903L281.469 33.112ZM285.501 40.344V41.344H286.649L286.491 40.2064L285.501 40.344ZM277.757 40.344L276.776 40.5401L276.937 41.344H277.757V40.344ZM268.861 37.72L268.288 36.9008L268.278 36.9077L268.268 36.9149L268.861 37.72ZM274.429 43.736L274.654 42.7616L274.652 42.7613L274.429 43.736ZM280.509 45.464L280.18 46.4082L280.193 46.4127L280.206 46.4169L280.509 45.464ZM284.989 48.216L284.244 48.8835L284.25 48.89L284.256 48.8965L284.989 48.216ZM286.653 53.4H285.653V53.4109L285.653 53.4217L286.653 53.4ZM285.117 58.712L284.288 58.1521L285.117 58.712ZM280.509 62.424L280.101 61.511L280.509 62.424ZM273.405 62.768C270.694 62.768 268.355 62.3366 266.368 61.502L265.594 63.346C267.873 64.3034 270.484 64.768 273.405 64.768V62.768ZM266.384 61.5087C264.381 60.6273 262.812 59.4417 261.646 57.9644L260.076 59.2036C261.47 60.969 263.315 62.3434 265.578 63.3393L266.384 61.5087ZM261.646 57.9644C260.485 56.4935 259.785 54.7911 259.55 52.8329L257.564 53.0711C257.841 55.3796 258.677 57.4318 260.076 59.2036L261.646 57.9644ZM258.557 53.952H266.813V51.952H258.557V53.952ZM265.834 53.1546C266.143 54.6476 266.968 55.9084 268.233 56.9299L269.489 55.3741C268.535 54.6036 267.995 53.7311 267.792 52.7494L265.834 53.1546ZM268.266 56.9556C269.629 57.9654 271.325 58.432 273.277 58.432V56.432C271.645 56.432 270.397 56.0453 269.456 55.3484L268.266 56.9556ZM273.277 58.432C275.166 58.432 276.767 58.0564 277.848 57.0892L276.514 55.5988C275.974 56.0823 274.972 56.432 273.277 56.432V58.432ZM277.829 57.1059C278.858 56.231 279.461 55.1372 279.461 53.848H277.461C277.461 54.4362 277.211 55.0063 276.533 55.5821L277.829 57.1059ZM279.461 53.848C279.461 53.0195 279.279 52.2473 278.851 51.5903C278.42 50.9287 277.791 50.4625 277.035 50.1652L276.303 52.0268C276.741 52.1988 277.009 52.426 277.175 52.6817C277.345 52.942 277.461 53.3112 277.461 53.848H279.461ZM277.063 50.1769C275.785 49.6291 274.051 49.1224 271.892 48.6474L271.462 50.6006C273.569 51.0643 275.164 51.5389 276.275 52.0151L277.063 50.1769ZM271.891 48.6471C270.552 48.3543 269.191 47.9984 267.807 47.579L267.227 49.493C268.659 49.9269 270.071 50.2963 271.463 50.6009L271.891 48.6471ZM267.807 47.579C266.457 47.1698 265.217 46.6609 264.085 46.0545L263.141 47.8175C264.398 48.4911 265.761 49.0489 267.227 49.493L267.807 47.579ZM264.123 46.0757C263.083 45.4597 262.252 44.6999 261.613 43.798L259.981 44.954C260.793 46.1001 261.839 47.0469 263.103 47.7963L264.123 46.0757ZM261.624 43.8137C261.031 42.9424 260.709 41.8465 260.709 40.472H258.709C258.709 42.1695 259.112 43.6762 259.97 44.9383L261.624 43.8137ZM260.709 40.472C260.709 37.9599 261.682 35.8633 263.691 34.1242L262.383 32.6118C259.955 34.7127 258.709 37.3521 258.709 40.472H260.709ZM263.684 34.1303C265.708 32.4119 268.606 31.488 272.509 31.488V29.488C268.305 29.488 264.889 30.4841 262.39 32.6057L263.684 34.1303ZM272.509 31.488C276.113 31.488 278.858 32.3268 280.85 33.8973L282.088 32.3267C279.643 30.3986 276.414 29.488 272.509 29.488V31.488ZM280.857 33.903C282.893 35.478 284.116 37.6443 284.51 40.4816L286.491 40.2064C286.032 36.8997 284.567 34.2446 282.081 32.321L280.857 33.903ZM285.501 39.344H277.757V41.344H285.501V39.344ZM278.738 40.1479C278.458 38.7496 277.766 37.6233 276.629 36.8704C275.522 36.1369 274.094 35.824 272.445 35.824V37.824C273.868 37.824 274.861 38.0978 275.525 38.5376C276.159 38.9581 276.587 39.5917 276.776 40.5401L278.738 40.1479ZM272.445 35.824C270.796 35.824 269.371 36.142 268.288 36.9008L269.434 38.5392C270.057 38.1033 271.022 37.824 272.445 37.824V35.824ZM268.268 36.9149C267.238 37.6739 266.645 38.7035 266.645 39.96H268.645C268.645 39.4245 268.863 38.9608 269.454 38.5251L268.268 36.9149ZM266.645 39.96C266.645 41.4617 267.68 42.4795 269.092 43.1125L269.91 41.2875C268.847 40.8111 268.645 40.3357 268.645 39.96H266.645ZM269.092 43.1125C270.412 43.7043 272.125 44.2338 274.206 44.7107L274.652 42.7613C272.637 42.2995 271.065 41.805 269.91 41.2875L269.092 43.1125ZM274.204 44.7104C276.393 45.2156 278.384 45.782 280.18 46.4082L280.838 44.5198C278.964 43.866 276.902 43.2804 274.654 42.7616L274.204 44.7104ZM280.206 46.4169C281.945 46.9703 283.275 47.8018 284.244 48.8835L285.734 47.5485C284.485 46.1556 282.828 45.1524 280.812 44.5111L280.206 46.4169ZM284.256 48.8965C285.137 49.8448 285.653 51.2927 285.653 53.4H287.653C287.653 50.9847 287.06 48.9765 285.722 47.5355L284.256 48.8965ZM285.653 53.4217C285.692 55.1842 285.236 56.7504 284.288 58.1521L285.946 59.2719C287.132 57.5162 287.7 55.5411 287.653 53.3783L285.653 53.4217ZM284.288 58.1521C283.341 59.5537 281.963 60.6793 280.101 61.511L280.917 63.337C283.066 62.3767 284.759 61.0277 285.946 59.2719L284.288 58.1521ZM280.101 61.511C278.251 62.3375 276.028 62.768 273.405 62.768V64.768C276.243 64.768 278.756 64.3025 280.917 63.337L280.101 61.511Z" fill="black"/>
</g>
<defs>
<filter id="filter0_d" x="2.04199" y="15.9219" width="289.614" height="56.848" filterUnits="userSpaceOnUse" color-interpolation-filters="sRGB">
<feFlood flood-opacity="0" result="BackgroundImageFix"/>
<feColorMatrix in="SourceAlpha" type="matrix" values="0 0 0 0 0 0 0 0 0 0 0 0 0 0 0 0 0 0 127 0" result="hardAlpha"/>
<feOffset dy="4"/>
<feGaussianBlur stdDeviation="2"/>
<feComposite in2="hardAlpha" operator="out"/>
<feColorMatrix type="matrix" values="0 0 0 0 0 0 0 0 0 0 0 0 0 0 0 0 0 0 0.25 0"/>
<feBlend mode="normal" in2="BackgroundImageFix" result="effect1_dropShadow"/>
<feBlend mode="normal" in="SourceGraphic" in2="effect1_dropShadow" result="shape"/>
</filter>
</defs>
</svg>
