<svg width="535" height="86" viewBox="0 0 535 86" fill="none" xmlns="http://www.w3.org/2000/svg">
<path d="M0.776 18V1.2H3.128L9.176 12.912L15.176 1.2H17.552V18H15.536V4.8L9.92 15.6H8.408L2.792 4.824V18H0.776ZM24.9363 18.288C23.9443 18.288 23.1203 18.12 22.4643 17.784C21.8083 17.448 21.3203 17 21.0003 16.44C20.6803 15.88 20.5203 15.272 20.5203 14.616C20.5203 13.4 20.9843 12.464 21.9123 11.808C22.8403 11.152 24.1043 10.824 25.7043 10.824H28.9203V10.68C28.9203 9.64 28.6483 8.856 28.1043 8.328C27.5603 7.784 26.8323 7.512 25.9203 7.512C25.1363 7.512 24.4563 7.712 23.8803 8.112C23.3203 8.496 22.9683 9.064 22.8243 9.816H20.7603C20.8403 8.952 21.1283 8.224 21.6243 7.632C22.1363 7.04 22.7683 6.592 23.5203 6.288C24.2723 5.968 25.0723 5.808 25.9203 5.808C27.5843 5.808 28.8323 6.256 29.6643 7.152C30.5123 8.032 30.9363 9.208 30.9363 10.68V18H29.1363L29.0163 15.864C28.6803 16.536 28.1843 17.112 27.5283 17.592C26.8883 18.056 26.0243 18.288 24.9363 18.288ZM25.2483 16.584C26.0163 16.584 26.6723 16.384 27.2163 15.984C27.7763 15.584 28.2003 15.064 28.4883 14.424C28.7763 13.784 28.9203 13.112 28.9203 12.408V12.384H25.8723C24.6883 12.384 23.8483 12.592 23.3523 13.008C22.8723 13.408 22.6323 13.912 22.6323 14.52C22.6323 15.144 22.8563 15.648 23.3043 16.032C23.7683 16.4 24.4163 16.584 25.2483 16.584ZM33.9607 18V0.719999H35.9767V8.136C36.3767 7.4 36.9447 6.832 37.6807 6.432C38.4167 6.016 39.2167 5.808 40.0807 5.808C41.4567 5.808 42.5607 6.24 43.3927 7.104C44.2247 7.952 44.6407 9.264 44.6407 11.04V18H42.6487V11.256C42.6487 8.776 41.6487 7.536 39.6487 7.536C38.6087 7.536 37.7367 7.912 37.0327 8.664C36.3287 9.4 35.9767 10.456 35.9767 11.832V18H33.9607ZM51.6551 18.288C50.6631 18.288 49.8391 18.12 49.1831 17.784C48.5271 17.448 48.0391 17 47.7191 16.44C47.3991 15.88 47.2391 15.272 47.2391 14.616C47.2391 13.4 47.7031 12.464 48.6311 11.808C49.5591 11.152 50.8231 10.824 52.4231 10.824H55.6391V10.68C55.6391 9.64 55.3671 8.856 54.8231 8.328C54.2791 7.784 53.5511 7.512 52.6391 7.512C51.8551 7.512 51.1751 7.712 50.5991 8.112C50.0391 8.496 49.6871 9.064 49.5431 9.816H47.4791C47.5591 8.952 47.8471 8.224 48.3431 7.632C48.8551 7.04 49.4871 6.592 50.2391 6.288C50.9911 5.968 51.7911 5.808 52.6391 5.808C54.3031 5.808 55.5511 6.256 56.3831 7.152C57.2311 8.032 57.6551 9.208 57.6551 10.68V18H55.8551L55.7351 15.864C55.3991 16.536 54.9031 17.112 54.2471 17.592C53.6071 18.056 52.7431 18.288 51.6551 18.288ZM51.9671 16.584C52.7351 16.584 53.3911 16.384 53.9351 15.984C54.4951 15.584 54.9191 15.064 55.2071 14.424C55.4951 13.784 55.6391 13.112 55.6391 12.408V12.384H52.5911C51.4071 12.384 50.5671 12.592 50.0711 13.008C49.5911 13.408 49.3511 13.912 49.3511 14.52C49.3511 15.144 49.5751 15.648 50.0231 16.032C50.4871 16.4 51.1351 16.584 51.9671 16.584ZM63.6661 18L59.1541 6.096H61.2661L64.8421 16.056L68.4421 6.096H70.5061L65.9941 18H63.6661ZM73.9738 3.456C73.5738 3.456 73.2378 3.328 72.9658 3.072C72.7098 2.8 72.5818 2.464 72.5818 2.064C72.5818 1.68 72.7098 1.36 72.9658 1.104C73.2378 0.847999 73.5738 0.719999 73.9738 0.719999C74.3578 0.719999 74.6858 0.847999 74.9578 1.104C75.2298 1.36 75.3658 1.68 75.3658 2.064C75.3658 2.464 75.2298 2.8 74.9578 3.072C74.6858 3.328 74.3578 3.456 73.9738 3.456ZM72.9658 18V6.096H74.9818V18H72.9658ZM78.4919 18V6.096H80.3159L80.4839 8.376C80.8519 7.592 81.4119 6.968 82.1639 6.504C82.9159 6.04 83.8439 5.808 84.9479 5.808V7.92H84.3959C83.6919 7.92 83.0439 8.048 82.4519 8.304C81.8599 8.544 81.3879 8.96 81.0359 9.552C80.6839 10.144 80.5079 10.96 80.5079 12V18H78.4919ZM99.0343 18.288C97.8023 18.288 96.7303 18.064 95.8183 17.616C94.9063 17.168 94.2023 16.544 93.7063 15.744C93.2103 14.944 92.9623 14.016 92.9623 12.96H95.0742C95.0742 13.616 95.2263 14.224 95.5303 14.784C95.8343 15.328 96.2743 15.768 96.8503 16.104C97.4423 16.424 98.1703 16.584 99.0343 16.584C100.17 16.584 101.05 16.312 101.674 15.768C102.298 15.224 102.61 14.544 102.61 13.728C102.61 13.056 102.466 12.52 102.178 12.12C101.89 11.704 101.498 11.368 101.002 11.112C100.522 10.856 99.9623 10.632 99.3223 10.44C98.6983 10.248 98.0423 10.032 97.3543 9.792C96.0583 9.344 95.0983 8.792 94.4743 8.136C93.8503 7.464 93.5383 6.592 93.5383 5.52C93.5223 4.624 93.7303 3.832 94.1623 3.144C94.5943 2.44 95.2023 1.896 95.9863 1.512C96.7863 1.112 97.7303 0.912 98.8183 0.912C99.8903 0.912 100.818 1.112 101.602 1.512C102.402 1.912 103.018 2.464 103.45 3.168C103.898 3.872 104.13 4.672 104.146 5.568H102.034C102.034 5.104 101.914 4.648 101.674 4.2C101.434 3.736 101.066 3.36 100.57 3.072C100.09 2.784 99.4823 2.64 98.7463 2.64C97.8343 2.624 97.0823 2.856 96.4903 3.336C95.9143 3.816 95.6263 4.48 95.6263 5.328C95.6263 6.048 95.8263 6.6 96.2263 6.984C96.6423 7.368 97.2183 7.688 97.9543 7.944C98.6903 8.184 99.5383 8.464 100.498 8.784C101.298 9.072 102.018 9.408 102.658 9.792C103.298 10.176 103.794 10.672 104.146 11.28C104.514 11.888 104.698 12.664 104.698 13.608C104.698 14.408 104.49 15.168 104.074 15.888C103.658 16.592 103.026 17.168 102.178 17.616C101.346 18.064 100.298 18.288 99.0343 18.288ZM112.141 18C111.053 18 110.197 17.736 109.573 17.208C108.949 16.68 108.637 15.728 108.637 14.352V7.8H106.573V6.096H108.637L108.901 3.24H110.653V6.096H114.157V7.8H110.653V14.352C110.653 15.104 110.805 15.616 111.109 15.888C111.413 16.144 111.949 16.272 112.717 16.272H113.965V18H112.141ZM121.742 18.288C120.606 18.288 119.598 18.032 118.718 17.52C117.838 16.992 117.142 16.264 116.63 15.336C116.134 14.408 115.886 13.312 115.886 12.048C115.886 10.8 116.134 9.712 116.63 8.784C117.126 7.84 117.814 7.112 118.694 6.6C119.59 6.072 120.622 5.808 121.79 5.808C122.942 5.808 123.934 6.072 124.766 6.6C125.614 7.112 126.262 7.792 126.71 8.64C127.158 9.488 127.382 10.4 127.382 11.376C127.382 11.552 127.374 11.728 127.358 11.904C127.358 12.08 127.358 12.28 127.358 12.504H117.878C117.926 13.416 118.134 14.176 118.502 14.784C118.886 15.376 119.358 15.824 119.918 16.128C120.494 16.432 121.102 16.584 121.742 16.584C122.574 16.584 123.27 16.392 123.83 16.008C124.39 15.624 124.798 15.104 125.054 14.448H127.046C126.726 15.552 126.11 16.472 125.198 17.208C124.302 17.928 123.15 18.288 121.742 18.288ZM121.742 7.512C120.782 7.512 119.926 7.808 119.174 8.4C118.438 8.976 118.014 9.824 117.902 10.944H125.39C125.342 9.872 124.974 9.032 124.286 8.424C123.598 7.816 122.75 7.512 121.742 7.512ZM135.406 18.288C134.27 18.288 133.262 18.032 132.382 17.52C131.502 16.992 130.806 16.264 130.294 15.336C129.798 14.408 129.55 13.312 129.55 12.048C129.55 10.8 129.798 9.712 130.294 8.784C130.79 7.84 131.478 7.112 132.358 6.6C133.254 6.072 134.286 5.808 135.454 5.808C136.606 5.808 137.598 6.072 138.43 6.6C139.278 7.112 139.926 7.792 140.374 8.64C140.822 9.488 141.046 10.4 141.046 11.376C141.046 11.552 141.038 11.728 141.022 11.904C141.022 12.08 141.022 12.28 141.022 12.504H131.542C131.59 13.416 131.798 14.176 132.166 14.784C132.55 15.376 133.022 15.824 133.582 16.128C134.158 16.432 134.766 16.584 135.406 16.584C136.238 16.584 136.934 16.392 137.494 16.008C138.054 15.624 138.462 15.104 138.718 14.448H140.71C140.39 15.552 139.774 16.472 138.862 17.208C137.966 17.928 136.814 18.288 135.406 18.288ZM135.406 7.512C134.446 7.512 133.59 7.808 132.838 8.4C132.102 8.976 131.678 9.824 131.566 10.944H139.054C139.006 9.872 138.638 9.032 137.95 8.424C137.262 7.816 136.414 7.512 135.406 7.512ZM143.719 18V0.719999H145.735V18H143.719ZM159.95 18.288C158.526 18.288 157.342 17.928 156.398 17.208C155.454 16.488 154.902 15.512 154.742 14.28H156.806C156.934 14.904 157.262 15.448 157.79 15.912C158.334 16.36 159.062 16.584 159.974 16.584C160.822 16.584 161.446 16.408 161.846 16.056C162.246 15.688 162.446 15.256 162.446 14.76C162.446 14.04 162.182 13.56 161.654 13.32C161.142 13.08 160.414 12.864 159.47 12.672C158.83 12.544 158.19 12.36 157.55 12.12C156.91 11.88 156.374 11.544 155.942 11.112C155.51 10.664 155.294 10.08 155.294 9.36C155.294 8.32 155.678 7.472 156.446 6.816C157.23 6.144 158.286 5.808 159.614 5.808C160.878 5.808 161.91 6.128 162.71 6.768C163.526 7.392 163.998 8.288 164.126 9.456H162.134C162.054 8.848 161.79 8.376 161.342 8.04C160.91 7.688 160.326 7.512 159.59 7.512C158.87 7.512 158.31 7.664 157.91 7.968C157.526 8.272 157.334 8.672 157.334 9.168C157.334 9.648 157.582 10.024 158.078 10.296C158.59 10.568 159.278 10.8 160.142 10.992C160.878 11.152 161.574 11.352 162.23 11.592C162.902 11.816 163.446 12.16 163.862 12.624C164.294 13.072 164.51 13.728 164.51 14.592C164.526 15.664 164.118 16.552 163.286 17.256C162.47 17.944 161.358 18.288 159.95 18.288ZM171.734 18.288C170.326 18.288 169.206 17.864 168.374 17.016C167.542 16.152 167.126 14.832 167.126 13.056V6.096H169.142V12.84C169.142 15.32 170.158 16.56 172.19 16.56C173.23 16.56 174.086 16.192 174.758 15.456C175.446 14.704 175.79 13.64 175.79 12.264V6.096H177.806V18H175.982L175.838 15.864C175.47 16.616 174.918 17.208 174.182 17.64C173.462 18.072 172.646 18.288 171.734 18.288ZM181.125 23.28V6.096H182.949L183.141 8.064C183.525 7.488 184.069 6.968 184.773 6.504C185.493 6.04 186.405 5.808 187.509 5.808C188.693 5.808 189.725 6.08 190.605 6.624C191.485 7.168 192.165 7.912 192.645 8.856C193.141 9.8 193.389 10.872 193.389 12.072C193.389 13.272 193.141 14.344 192.645 15.288C192.165 16.216 191.477 16.952 190.581 17.496C189.701 18.024 188.669 18.288 187.485 18.288C186.509 18.288 185.637 18.088 184.869 17.688C184.117 17.288 183.541 16.728 183.141 16.008V23.28H181.125ZM187.269 16.536C188.069 16.536 188.773 16.352 189.381 15.984C189.989 15.6 190.469 15.072 190.821 14.4C191.173 13.728 191.349 12.944 191.349 12.048C191.349 11.152 191.173 10.368 190.821 9.696C190.469 9.024 189.989 8.504 189.381 8.136C188.773 7.752 188.069 7.56 187.269 7.56C186.469 7.56 185.765 7.752 185.157 8.136C184.549 8.504 184.069 9.024 183.717 9.696C183.365 10.368 183.189 11.152 183.189 12.048C183.189 12.944 183.365 13.728 183.717 14.4C184.069 15.072 184.549 15.6 185.157 15.984C185.765 16.352 186.469 16.536 187.269 16.536ZM196.195 23.28V6.096H198.019L198.211 8.064C198.595 7.488 199.139 6.968 199.843 6.504C200.563 6.04 201.475 5.808 202.579 5.808C203.763 5.808 204.795 6.08 205.675 6.624C206.555 7.168 207.235 7.912 207.715 8.856C208.211 9.8 208.459 10.872 208.459 12.072C208.459 13.272 208.211 14.344 207.715 15.288C207.235 16.216 206.547 16.952 205.651 17.496C204.771 18.024 203.739 18.288 202.555 18.288C201.579 18.288 200.707 18.088 199.939 17.688C199.187 17.288 198.611 16.728 198.211 16.008V23.28H196.195ZM202.339 16.536C203.139 16.536 203.843 16.352 204.451 15.984C205.059 15.6 205.539 15.072 205.891 14.4C206.243 13.728 206.419 12.944 206.419 12.048C206.419 11.152 206.243 10.368 205.891 9.696C205.539 9.024 205.059 8.504 204.451 8.136C203.843 7.752 203.139 7.56 202.339 7.56C201.539 7.56 200.835 7.752 200.227 8.136C199.619 8.504 199.139 9.024 198.787 9.696C198.435 10.368 198.259 11.152 198.259 12.048C198.259 12.944 198.435 13.728 198.787 14.4C199.139 15.072 199.619 15.6 200.227 15.984C200.835 16.352 201.539 16.536 202.339 16.536ZM211.265 18V0.719999H213.281V18H211.265ZM217.81 3.456C217.41 3.456 217.074 3.328 216.802 3.072C216.546 2.8 216.418 2.464 216.418 2.064C216.418 1.68 216.546 1.36 216.802 1.104C217.074 0.847999 217.41 0.719999 217.81 0.719999C218.194 0.719999 218.522 0.847999 218.794 1.104C219.066 1.36 219.202 1.68 219.202 2.064C219.202 2.464 219.066 2.8 218.794 3.072C218.522 3.328 218.194 3.456 217.81 3.456ZM216.802 18V6.096H218.818V18H216.802ZM227.68 18.288C226.544 18.288 225.536 18.032 224.656 17.52C223.776 16.992 223.08 16.264 222.568 15.336C222.072 14.408 221.824 13.312 221.824 12.048C221.824 10.8 222.072 9.712 222.568 8.784C223.064 7.84 223.752 7.112 224.632 6.6C225.528 6.072 226.56 5.808 227.728 5.808C228.88 5.808 229.872 6.072 230.704 6.6C231.552 7.112 232.2 7.792 232.648 8.64C233.096 9.488 233.32 10.4 233.32 11.376C233.32 11.552 233.312 11.728 233.296 11.904C233.296 12.08 233.296 12.28 233.296 12.504H223.816C223.864 13.416 224.072 14.176 224.44 14.784C224.824 15.376 225.296 15.824 225.856 16.128C226.432 16.432 227.04 16.584 227.68 16.584C228.512 16.584 229.208 16.392 229.768 16.008C230.328 15.624 230.736 15.104 230.992 14.448H232.984C232.664 15.552 232.048 16.472 231.136 17.208C230.24 17.928 229.088 18.288 227.68 18.288ZM227.68 7.512C226.72 7.512 225.864 7.808 225.112 8.4C224.376 8.976 223.952 9.824 223.84 10.944H231.328C231.28 9.872 230.912 9.032 230.224 8.424C229.536 7.816 228.688 7.512 227.68 7.512ZM240.552 18.288C239.128 18.288 237.944 17.928 237 17.208C236.056 16.488 235.504 15.512 235.344 14.28H237.408C237.536 14.904 237.864 15.448 238.392 15.912C238.936 16.36 239.664 16.584 240.576 16.584C241.424 16.584 242.048 16.408 242.448 16.056C242.848 15.688 243.048 15.256 243.048 14.76C243.048 14.04 242.784 13.56 242.256 13.32C241.744 13.08 241.016 12.864 240.072 12.672C239.432 12.544 238.792 12.36 238.152 12.12C237.512 11.88 236.976 11.544 236.544 11.112C236.112 10.664 235.896 10.08 235.896 9.36C235.896 8.32 236.28 7.472 237.048 6.816C237.832 6.144 238.888 5.808 240.216 5.808C241.48 5.808 242.512 6.128 243.312 6.768C244.128 7.392 244.6 8.288 244.728 9.456H242.736C242.656 8.848 242.392 8.376 241.944 8.04C241.512 7.688 240.928 7.512 240.192 7.512C239.472 7.512 238.912 7.664 238.512 7.968C238.128 8.272 237.936 8.672 237.936 9.168C237.936 9.648 238.184 10.024 238.68 10.296C239.192 10.568 239.88 10.8 240.744 10.992C241.48 11.152 242.176 11.352 242.832 11.592C243.504 11.816 244.048 12.16 244.464 12.624C244.896 13.072 245.112 13.728 245.112 14.592C245.128 15.664 244.72 16.552 243.888 17.256C243.072 17.944 241.96 18.288 240.552 18.288ZM258.304 18.288C257.312 18.288 256.488 18.12 255.832 17.784C255.176 17.448 254.688 17 254.368 16.44C254.048 15.88 253.888 15.272 253.888 14.616C253.888 13.4 254.352 12.464 255.28 11.808C256.208 11.152 257.472 10.824 259.072 10.824H262.288V10.68C262.288 9.64 262.016 8.856 261.472 8.328C260.928 7.784 260.2 7.512 259.288 7.512C258.504 7.512 257.824 7.712 257.248 8.112C256.688 8.496 256.336 9.064 256.192 9.816H254.128C254.208 8.952 254.496 8.224 254.992 7.632C255.504 7.04 256.136 6.592 256.888 6.288C257.64 5.968 258.44 5.808 259.288 5.808C260.952 5.808 262.2 6.256 263.032 7.152C263.88 8.032 264.304 9.208 264.304 10.68V18H262.504L262.384 15.864C262.048 16.536 261.552 17.112 260.896 17.592C260.256 18.056 259.392 18.288 258.304 18.288ZM258.616 16.584C259.384 16.584 260.04 16.384 260.584 15.984C261.144 15.584 261.568 15.064 261.856 14.424C262.144 13.784 262.288 13.112 262.288 12.408V12.384H259.24C258.056 12.384 257.216 12.592 256.72 13.008C256.24 13.408 256 13.912 256 14.52C256 15.144 256.224 15.648 256.672 16.032C257.136 16.4 257.784 16.584 258.616 16.584ZM276.079 18L272.599 6.096H274.615L277.135 15.432L279.919 6.096H282.199L285.007 15.432L287.503 6.096H289.543L286.063 18H283.999L281.071 8.184L278.143 18H276.079ZM292.997 3.456C292.597 3.456 292.261 3.328 291.989 3.072C291.733 2.8 291.605 2.464 291.605 2.064C291.605 1.68 291.733 1.36 291.989 1.104C292.261 0.847999 292.597 0.719999 292.997 0.719999C293.381 0.719999 293.709 0.847999 293.981 1.104C294.253 1.36 294.389 1.68 294.389 2.064C294.389 2.464 294.253 2.8 293.981 3.072C293.709 3.328 293.381 3.456 292.997 3.456ZM291.989 18V6.096H294.005V18H291.989ZM302.915 18.288C301.731 18.288 300.691 18.016 299.795 17.472C298.915 16.928 298.227 16.184 297.731 15.24C297.251 14.296 297.011 13.224 297.011 12.024C297.011 10.824 297.259 9.76 297.755 8.832C298.251 7.888 298.939 7.152 299.819 6.624C300.699 6.08 301.739 5.808 302.939 5.808C303.915 5.808 304.779 6.008 305.531 6.408C306.283 6.808 306.867 7.368 307.283 8.088V0.719999H309.299V18H307.475L307.283 16.032C306.899 16.608 306.347 17.128 305.627 17.592C304.907 18.056 304.003 18.288 302.915 18.288ZM303.131 16.536C303.931 16.536 304.635 16.352 305.243 15.984C305.867 15.6 306.347 15.072 306.683 14.4C307.035 13.728 307.211 12.944 307.211 12.048C307.211 11.152 307.035 10.368 306.683 9.696C306.347 9.024 305.867 8.504 305.243 8.136C304.635 7.752 303.931 7.56 303.131 7.56C302.347 7.56 301.643 7.752 301.019 8.136C300.411 8.504 299.931 9.024 299.579 9.696C299.243 10.368 299.075 11.152 299.075 12.048C299.075 12.944 299.243 13.728 299.579 14.4C299.931 15.072 300.411 15.6 301.019 15.984C301.643 16.352 302.347 16.536 303.131 16.536ZM317.938 18.288C316.802 18.288 315.794 18.032 314.914 17.52C314.034 16.992 313.338 16.264 312.826 15.336C312.33 14.408 312.082 13.312 312.082 12.048C312.082 10.8 312.33 9.712 312.826 8.784C313.322 7.84 314.01 7.112 314.89 6.6C315.786 6.072 316.818 5.808 317.986 5.808C319.138 5.808 320.13 6.072 320.962 6.6C321.81 7.112 322.458 7.792 322.906 8.64C323.354 9.488 323.578 10.4 323.578 11.376C323.578 11.552 323.57 11.728 323.554 11.904C323.554 12.08 323.554 12.28 323.554 12.504H314.074C314.122 13.416 314.33 14.176 314.698 14.784C315.082 15.376 315.554 15.824 316.114 16.128C316.69 16.432 317.298 16.584 317.938 16.584C318.77 16.584 319.466 16.392 320.026 16.008C320.586 15.624 320.994 15.104 321.25 14.448H323.242C322.922 15.552 322.306 16.472 321.394 17.208C320.498 17.928 319.346 18.288 317.938 18.288ZM317.938 7.512C316.978 7.512 316.122 7.808 315.37 8.4C314.634 8.976 314.21 9.824 314.098 10.944H321.586C321.538 9.872 321.17 9.032 320.482 8.424C319.794 7.816 318.946 7.512 317.938 7.512ZM332.601 18V6.096H334.425L334.593 8.376C334.961 7.592 335.521 6.968 336.273 6.504C337.025 6.04 337.953 5.808 339.057 5.808V7.92H338.505C337.801 7.92 337.153 8.048 336.561 8.304C335.969 8.544 335.497 8.96 335.145 9.552C334.793 10.144 334.617 10.96 334.617 12V18H332.601ZM345.28 18.288C344.288 18.288 343.464 18.12 342.808 17.784C342.152 17.448 341.664 17 341.344 16.44C341.024 15.88 340.864 15.272 340.864 14.616C340.864 13.4 341.328 12.464 342.256 11.808C343.184 11.152 344.448 10.824 346.048 10.824H349.264V10.68C349.264 9.64 348.992 8.856 348.448 8.328C347.904 7.784 347.176 7.512 346.264 7.512C345.48 7.512 344.8 7.712 344.224 8.112C343.664 8.496 343.312 9.064 343.168 9.816H341.104C341.184 8.952 341.472 8.224 341.968 7.632C342.48 7.04 343.112 6.592 343.864 6.288C344.616 5.968 345.416 5.808 346.264 5.808C347.928 5.808 349.176 6.256 350.008 7.152C350.856 8.032 351.28 9.208 351.28 10.68V18H349.48L349.36 15.864C349.024 16.536 348.528 17.112 347.872 17.592C347.232 18.056 346.368 18.288 345.28 18.288ZM345.592 16.584C346.36 16.584 347.016 16.384 347.56 15.984C348.12 15.584 348.544 15.064 348.832 14.424C349.12 13.784 349.264 13.112 349.264 12.408V12.384H346.216C345.032 12.384 344.192 12.592 343.696 13.008C343.216 13.408 342.976 13.912 342.976 14.52C342.976 15.144 343.2 15.648 343.648 16.032C344.112 16.4 344.76 16.584 345.592 16.584ZM354.304 18V6.096H356.128L356.248 8.232C356.632 7.48 357.184 6.888 357.904 6.456C358.624 6.024 359.44 5.808 360.352 5.808C361.76 5.808 362.88 6.24 363.712 7.104C364.56 7.952 364.984 9.264 364.984 11.04V18H362.968V11.256C362.968 8.776 361.944 7.536 359.896 7.536C358.872 7.536 358.016 7.912 357.328 8.664C356.656 9.4 356.32 10.456 356.32 11.832V18H354.304ZM372.743 14.256C372.071 14.256 371.455 14.168 370.895 13.992L369.695 15.12C369.871 15.248 370.087 15.36 370.343 15.456C370.615 15.536 370.999 15.616 371.495 15.696C371.991 15.76 372.687 15.832 373.583 15.912C375.183 16.024 376.327 16.392 377.015 17.016C377.703 17.64 378.047 18.456 378.047 19.464C378.047 20.152 377.855 20.808 377.471 21.432C377.103 22.056 376.527 22.568 375.743 22.968C374.975 23.368 373.983 23.568 372.767 23.568C371.695 23.568 370.743 23.424 369.911 23.136C369.079 22.864 368.431 22.44 367.967 21.864C367.503 21.304 367.271 20.592 367.271 19.728C367.271 19.28 367.391 18.792 367.631 18.264C367.871 17.752 368.319 17.264 368.975 16.8C368.623 16.656 368.319 16.504 368.063 16.344C367.823 16.168 367.599 15.976 367.391 15.768V15.216L369.431 13.2C368.487 12.4 368.015 11.344 368.015 10.032C368.015 9.248 368.199 8.536 368.567 7.896C368.935 7.256 369.471 6.752 370.175 6.384C370.879 6 371.735 5.808 372.743 5.808C373.431 5.808 374.055 5.904 374.615 6.096H379.007V7.608L376.775 7.704C377.239 8.376 377.471 9.152 377.471 10.032C377.471 10.816 377.279 11.528 376.895 12.168C376.527 12.808 375.991 13.32 375.287 13.704C374.599 14.072 373.751 14.256 372.743 14.256ZM372.743 12.6C373.591 12.6 374.263 12.384 374.759 11.952C375.271 11.504 375.527 10.864 375.527 10.032C375.527 9.216 375.271 8.592 374.759 8.16C374.263 7.712 373.591 7.488 372.743 7.488C371.879 7.488 371.191 7.712 370.679 8.16C370.183 8.592 369.935 9.216 369.935 10.032C369.935 10.864 370.183 11.504 370.679 11.952C371.191 12.384 371.879 12.6 372.743 12.6ZM369.239 19.536C369.239 20.336 369.575 20.928 370.247 21.312C370.919 21.712 371.759 21.912 372.767 21.912C373.759 21.912 374.551 21.696 375.143 21.264C375.751 20.832 376.055 20.256 376.055 19.536C376.055 19.024 375.847 18.576 375.431 18.192C375.015 17.824 374.247 17.608 373.127 17.544C372.247 17.48 371.487 17.4 370.847 17.304C370.191 17.656 369.759 18.032 369.551 18.432C369.343 18.848 369.239 19.216 369.239 19.536ZM386.164 18.288C385.028 18.288 384.02 18.032 383.14 17.52C382.26 16.992 381.564 16.264 381.052 15.336C380.556 14.408 380.308 13.312 380.308 12.048C380.308 10.8 380.556 9.712 381.052 8.784C381.548 7.84 382.236 7.112 383.116 6.6C384.012 6.072 385.044 5.808 386.212 5.808C387.364 5.808 388.356 6.072 389.188 6.6C390.036 7.112 390.684 7.792 391.132 8.64C391.58 9.488 391.804 10.4 391.804 11.376C391.804 11.552 391.796 11.728 391.78 11.904C391.78 12.08 391.78 12.28 391.78 12.504H382.3C382.348 13.416 382.556 14.176 382.924 14.784C383.308 15.376 383.78 15.824 384.34 16.128C384.916 16.432 385.524 16.584 386.164 16.584C386.996 16.584 387.692 16.392 388.252 16.008C388.812 15.624 389.22 15.104 389.476 14.448H391.468C391.148 15.552 390.532 16.472 389.62 17.208C388.724 17.928 387.572 18.288 386.164 18.288ZM386.164 7.512C385.204 7.512 384.348 7.808 383.596 8.4C382.86 8.976 382.436 9.824 382.324 10.944H389.812C389.764 9.872 389.396 9.032 388.708 8.424C388.02 7.816 387.172 7.512 386.164 7.512ZM406.252 18.288C405.132 18.288 404.124 18.032 403.228 17.52C402.332 17.008 401.62 16.288 401.092 15.36C400.58 14.416 400.324 13.312 400.324 12.048C400.324 10.784 400.588 9.688 401.116 8.76C401.644 7.816 402.356 7.088 403.252 6.576C404.164 6.064 405.18 5.808 406.3 5.808C407.42 5.808 408.428 6.064 409.324 6.576C410.22 7.088 410.924 7.816 411.436 8.76C411.964 9.688 412.228 10.784 412.228 12.048C412.228 13.312 411.964 14.416 411.436 15.36C410.908 16.288 410.188 17.008 409.276 17.52C408.38 18.032 407.372 18.288 406.252 18.288ZM406.252 16.56C406.94 16.56 407.58 16.392 408.172 16.056C408.764 15.72 409.244 15.216 409.612 14.544C409.98 13.872 410.164 13.04 410.164 12.048C410.164 11.056 409.98 10.224 409.612 9.552C409.26 8.88 408.788 8.376 408.196 8.04C407.604 7.704 406.972 7.536 406.3 7.536C405.612 7.536 404.972 7.704 404.38 8.04C403.788 8.376 403.308 8.88 402.94 9.552C402.572 10.224 402.388 11.056 402.388 12.048C402.388 13.04 402.572 13.872 402.94 14.544C403.308 15.216 403.78 15.72 404.356 16.056C404.948 16.392 405.58 16.56 406.252 16.56ZM415.679 18V7.8H413.879V6.096H415.679V4.032C415.679 2.88 415.967 2.04 416.543 1.512C417.119 0.983999 417.959 0.719999 419.063 0.719999H420.263V2.448H419.375C418.767 2.448 418.335 2.576 418.079 2.832C417.823 3.072 417.695 3.488 417.695 4.08V6.096H420.623V7.8H417.695V18H415.679ZM429.495 18V1.2H431.847L437.895 12.912L443.895 1.2H446.271V18H444.255V4.8L438.639 15.6H437.127L431.511 4.824V18H429.495ZM450.919 3.456C450.519 3.456 450.183 3.328 449.911 3.072C449.655 2.8 449.527 2.464 449.527 2.064C449.527 1.68 449.655 1.36 449.911 1.104C450.183 0.847999 450.519 0.719999 450.919 0.719999C451.303 0.719999 451.631 0.847999 451.903 1.104C452.175 1.36 452.311 1.68 452.311 2.064C452.311 2.464 452.175 2.8 451.903 3.072C451.631 3.328 451.303 3.456 450.919 3.456ZM449.911 18V6.096H451.927V18H449.911ZM455.437 18V0.719999H457.453V18H455.437ZM466.158 18.288C464.974 18.288 463.934 18.016 463.038 17.472C462.158 16.928 461.47 16.184 460.974 15.24C460.494 14.296 460.254 13.224 460.254 12.024C460.254 10.824 460.502 9.76 460.998 8.832C461.494 7.888 462.182 7.152 463.062 6.624C463.942 6.08 464.982 5.808 466.182 5.808C467.158 5.808 468.022 6.008 468.774 6.408C469.526 6.808 470.11 7.368 470.526 8.088V0.719999H472.542V18H470.718L470.526 16.032C470.142 16.608 469.59 17.128 468.87 17.592C468.15 18.056 467.246 18.288 466.158 18.288ZM466.374 16.536C467.174 16.536 467.878 16.352 468.486 15.984C469.11 15.6 469.59 15.072 469.926 14.4C470.278 13.728 470.454 12.944 470.454 12.048C470.454 11.152 470.278 10.368 469.926 9.696C469.59 9.024 469.11 8.504 468.486 8.136C467.878 7.752 467.174 7.56 466.374 7.56C465.59 7.56 464.886 7.752 464.262 8.136C463.654 8.504 463.174 9.024 462.822 9.696C462.486 10.368 462.318 11.152 462.318 12.048C462.318 12.944 462.486 13.728 462.822 14.4C463.174 15.072 463.654 15.6 464.262 15.984C464.886 16.352 465.59 16.536 466.374 16.536ZM487.651 18.288C486.419 18.288 485.347 18.064 484.435 17.616C483.523 17.168 482.819 16.544 482.323 15.744C481.827 14.944 481.579 14.016 481.579 12.96H483.691C483.691 13.616 483.843 14.224 484.147 14.784C484.451 15.328 484.891 15.768 485.467 16.104C486.059 16.424 486.787 16.584 487.651 16.584C488.787 16.584 489.667 16.312 490.291 15.768C490.915 15.224 491.227 14.544 491.227 13.728C491.227 13.056 491.083 12.52 490.795 12.12C490.507 11.704 490.115 11.368 489.619 11.112C489.139 10.856 488.579 10.632 487.939 10.44C487.315 10.248 486.659 10.032 485.971 9.792C484.675 9.344 483.715 8.792 483.091 8.136C482.467 7.464 482.155 6.592 482.155 5.52C482.139 4.624 482.347 3.832 482.779 3.144C483.211 2.44 483.819 1.896 484.603 1.512C485.403 1.112 486.347 0.912 487.435 0.912C488.507 0.912 489.435 1.112 490.219 1.512C491.019 1.912 491.635 2.464 492.067 3.168C492.515 3.872 492.747 4.672 492.763 5.568H490.651C490.651 5.104 490.531 4.648 490.291 4.2C490.051 3.736 489.683 3.36 489.187 3.072C488.707 2.784 488.099 2.64 487.363 2.64C486.451 2.624 485.699 2.856 485.107 3.336C484.531 3.816 484.243 4.48 484.243 5.328C484.243 6.048 484.443 6.6 484.843 6.984C485.259 7.368 485.835 7.688 486.571 7.944C487.307 8.184 488.155 8.464 489.115 8.784C489.915 9.072 490.635 9.408 491.275 9.792C491.915 10.176 492.411 10.672 492.763 11.28C493.131 11.888 493.315 12.664 493.315 13.608C493.315 14.408 493.107 15.168 492.691 15.888C492.275 16.592 491.643 17.168 490.795 17.616C489.963 18.064 488.915 18.288 487.651 18.288ZM500.758 18C499.67 18 498.814 17.736 498.19 17.208C497.566 16.68 497.254 15.728 497.254 14.352V7.8H495.19V6.096H497.254L497.518 3.24H499.27V6.096H502.774V7.8H499.27V14.352C499.27 15.104 499.422 15.616 499.726 15.888C500.03 16.144 500.566 16.272 501.334 16.272H502.582V18H500.758ZM510.36 18.288C509.224 18.288 508.216 18.032 507.336 17.52C506.456 16.992 505.76 16.264 505.248 15.336C504.752 14.408 504.504 13.312 504.504 12.048C504.504 10.8 504.752 9.712 505.248 8.784C505.744 7.84 506.432 7.112 507.312 6.6C508.208 6.072 509.24 5.808 510.408 5.808C511.56 5.808 512.552 6.072 513.384 6.6C514.232 7.112 514.88 7.792 515.328 8.64C515.776 9.488 516 10.4 516 11.376C516 11.552 515.992 11.728 515.976 11.904C515.976 12.08 515.976 12.28 515.976 12.504H506.496C506.544 13.416 506.752 14.176 507.12 14.784C507.504 15.376 507.976 15.824 508.536 16.128C509.112 16.432 509.72 16.584 510.36 16.584C511.192 16.584 511.888 16.392 512.448 16.008C513.008 15.624 513.416 15.104 513.672 14.448H515.664C515.344 15.552 514.728 16.472 513.816 17.208C512.92 17.928 511.768 18.288 510.36 18.288ZM510.36 7.512C509.4 7.512 508.544 7.808 507.792 8.4C507.056 8.976 506.632 9.824 506.52 10.944H514.008C513.96 9.872 513.592 9.032 512.904 8.424C512.216 7.816 511.368 7.512 510.36 7.512ZM524.024 18.288C522.888 18.288 521.88 18.032 521 17.52C520.12 16.992 519.424 16.264 518.912 15.336C518.416 14.408 518.168 13.312 518.168 12.048C518.168 10.8 518.416 9.712 518.912 8.784C519.408 7.84 520.096 7.112 520.976 6.6C521.872 6.072 522.904 5.808 524.072 5.808C525.224 5.808 526.216 6.072 527.048 6.6C527.896 7.112 528.544 7.792 528.992 8.64C529.44 9.488 529.664 10.4 529.664 11.376C529.664 11.552 529.656 11.728 529.64 11.904C529.64 12.08 529.64 12.28 529.64 12.504H520.16C520.208 13.416 520.416 14.176 520.784 14.784C521.168 15.376 521.64 15.824 522.2 16.128C522.776 16.432 523.384 16.584 524.024 16.584C524.856 16.584 525.552 16.392 526.112 16.008C526.672 15.624 527.08 15.104 527.336 14.448H529.328C529.008 15.552 528.392 16.472 527.48 17.208C526.584 17.928 525.432 18.288 524.024 18.288ZM524.024 7.512C523.064 7.512 522.208 7.808 521.456 8.4C520.72 8.976 520.296 9.824 520.184 10.944H527.672C527.624 9.872 527.256 9.032 526.568 8.424C525.88 7.816 525.032 7.512 524.024 7.512ZM532.336 18V0.719999H534.352V18H532.336ZM4.952 52.48C4.088 51.648 3.288 50.656 2.552 49.504C1.816 48.368 1.224 47.088 0.776 45.664C0.344 44.224 0.128 42.672 0.128 41.008C0.128 39.344 0.344 37.8 0.776 36.376C1.224 34.936 1.816 33.648 2.552 32.512C3.288 31.36 4.088 30.368 4.952 29.536H7.016V29.728C5.544 31.168 4.36 32.856 3.464 34.792C2.584 36.712 2.144 38.784 2.144 41.008C2.144 43.232 2.592 45.312 3.488 47.248C4.384 49.168 5.56 50.848 7.016 52.288V52.48H4.952ZM9.70569 49V32.2H12.0577L18.1057 43.912L24.1057 32.2H26.4817V49H24.4657V35.8L18.8497 46.6H17.3377L11.7217 35.824V49H9.70569ZM35.378 49.288C34.146 49.288 33.074 49.064 32.162 48.616C31.25 48.168 30.546 47.544 30.05 46.744C29.554 45.944 29.306 45.016 29.306 43.96H31.418C31.418 44.616 31.57 45.224 31.874 45.784C32.178 46.328 32.618 46.768 33.194 47.104C33.786 47.424 34.514 47.584 35.378 47.584C36.514 47.584 37.394 47.312 38.018 46.768C38.642 46.224 38.954 45.544 38.954 44.728C38.954 44.056 38.81 43.52 38.522 43.12C38.234 42.704 37.842 42.368 37.346 42.112C36.866 41.856 36.306 41.632 35.666 41.44C35.042 41.248 34.386 41.032 33.698 40.792C32.402 40.344 31.442 39.792 30.818 39.136C30.194 38.464 29.882 37.592 29.882 36.52C29.866 35.624 30.074 34.832 30.506 34.144C30.938 33.44 31.546 32.896 32.33 32.512C33.13 32.112 34.074 31.912 35.162 31.912C36.234 31.912 37.162 32.112 37.946 32.512C38.746 32.912 39.362 33.464 39.794 34.168C40.242 34.872 40.474 35.672 40.49 36.568H38.378C38.378 36.104 38.258 35.648 38.018 35.2C37.778 34.736 37.41 34.36 36.914 34.072C36.434 33.784 35.826 33.64 35.09 33.64C34.178 33.624 33.426 33.856 32.834 34.336C32.258 34.816 31.97 35.48 31.97 36.328C31.97 37.048 32.17 37.6 32.57 37.984C32.986 38.368 33.562 38.688 34.298 38.944C35.034 39.184 35.882 39.464 36.842 39.784C37.642 40.072 38.362 40.408 39.002 40.792C39.642 41.176 40.138 41.672 40.49 42.28C40.858 42.888 41.042 43.664 41.042 44.608C41.042 45.408 40.834 46.168 40.418 46.888C40.002 47.592 39.37 48.168 38.522 48.616C37.69 49.064 36.642 49.288 35.378 49.288ZM43.037 52.48V52.288C44.493 50.848 45.669 49.168 46.565 47.248C47.477 45.312 47.933 43.232 47.933 41.008C47.933 38.784 47.485 36.712 46.589 34.792C45.693 32.856 44.517 31.168 43.061 29.728V29.536H45.101C45.981 30.368 46.781 31.36 47.501 32.512C48.237 33.648 48.821 34.936 49.253 36.376C49.701 37.8 49.925 39.344 49.925 41.008C49.925 42.672 49.701 44.224 49.253 45.664C48.821 47.088 48.237 48.368 47.501 49.504C46.781 50.656 45.981 51.648 45.101 52.48H43.037ZM66.5503 49.288C64.9023 49.288 63.4783 48.928 62.2783 48.208C61.0943 47.472 60.1743 46.456 59.5183 45.16C58.8623 43.848 58.5343 42.328 58.5343 40.6C58.5343 38.888 58.8623 37.384 59.5183 36.088C60.1743 34.776 61.0943 33.752 62.2783 33.016C63.4783 32.28 64.9023 31.912 66.5503 31.912C68.4703 31.912 70.0303 32.376 71.2303 33.304C72.4463 34.216 73.2223 35.496 73.5583 37.144H71.3263C71.0703 36.104 70.5423 35.272 69.7422 34.648C68.9583 34.008 67.8943 33.688 66.5503 33.688C65.3503 33.688 64.3023 33.968 63.4062 34.528C62.5103 35.072 61.8143 35.864 61.3183 36.904C60.8383 37.928 60.5983 39.16 60.5983 40.6C60.5983 42.04 60.8383 43.28 61.3183 44.32C61.8143 45.344 62.5103 46.136 63.4062 46.696C64.3023 47.24 65.3503 47.512 66.5503 47.512C67.8943 47.512 68.9583 47.208 69.7422 46.6C70.5423 45.976 71.0703 45.152 71.3263 44.128H73.5583C73.2223 45.744 72.4463 47.008 71.2303 47.92C70.0303 48.832 68.4703 49.288 66.5503 49.288ZM76.3357 49V31.72H78.3517V39.136C78.7517 38.4 79.3197 37.832 80.0557 37.432C80.7917 37.016 81.5917 36.808 82.4557 36.808C83.8317 36.808 84.9357 37.24 85.7677 38.104C86.5997 38.952 87.0157 40.264 87.0157 42.04V49H85.0237V42.256C85.0237 39.776 84.0237 38.536 82.0237 38.536C80.9837 38.536 80.1117 38.912 79.4077 39.664C78.7037 40.4 78.3517 41.456 78.3517 42.832V49H76.3357ZM94.0301 49.288C93.0381 49.288 92.2141 49.12 91.5581 48.784C90.9021 48.448 90.4141 48 90.0941 47.44C89.7741 46.88 89.6141 46.272 89.6141 45.616C89.6141 44.4 90.0781 43.464 91.0061 42.808C91.9341 42.152 93.1981 41.824 94.7981 41.824H98.0141V41.68C98.0141 40.64 97.7421 39.856 97.1981 39.328C96.6541 38.784 95.9261 38.512 95.0141 38.512C94.2301 38.512 93.5501 38.712 92.9741 39.112C92.4141 39.496 92.0621 40.064 91.9181 40.816H89.8541C89.9341 39.952 90.2221 39.224 90.7181 38.632C91.2301 38.04 91.8621 37.592 92.6141 37.288C93.3661 36.968 94.1661 36.808 95.0141 36.808C96.6781 36.808 97.9261 37.256 98.7581 38.152C99.6061 39.032 100.03 40.208 100.03 41.68V49H98.2301L98.1101 46.864C97.7741 47.536 97.2781 48.112 96.6221 48.592C95.9821 49.056 95.1181 49.288 94.0301 49.288ZM94.3421 47.584C95.1101 47.584 95.7661 47.384 96.3101 46.984C96.8701 46.584 97.2941 46.064 97.5821 45.424C97.8701 44.784 98.0141 44.112 98.0141 43.408V43.384H94.9661C93.7821 43.384 92.9421 43.592 92.4461 44.008C91.9661 44.408 91.7261 44.912 91.7261 45.52C91.7261 46.144 91.9501 46.648 92.3981 47.032C92.8621 47.4 93.5101 47.584 94.3421 47.584ZM103.054 49V37.096H104.878L104.998 39.232C105.382 38.48 105.934 37.888 106.654 37.456C107.374 37.024 108.19 36.808 109.102 36.808C110.51 36.808 111.63 37.24 112.462 38.104C113.31 38.952 113.734 40.264 113.734 42.04V49H111.718V42.256C111.718 39.776 110.694 38.536 108.646 38.536C107.622 38.536 106.766 38.912 106.078 39.664C105.406 40.4 105.07 41.456 105.07 42.832V49H103.054ZM116.789 49V37.096H118.613L118.733 39.232C119.117 38.48 119.669 37.888 120.389 37.456C121.109 37.024 121.925 36.808 122.837 36.808C124.245 36.808 125.365 37.24 126.197 38.104C127.045 38.952 127.469 40.264 127.469 42.04V49H125.453V42.256C125.453 39.776 124.429 38.536 122.381 38.536C121.357 38.536 120.501 38.912 119.813 39.664C119.141 40.4 118.805 41.456 118.805 42.832V49H116.789ZM135.875 49.288C134.739 49.288 133.731 49.032 132.851 48.52C131.971 47.992 131.275 47.264 130.763 46.336C130.267 45.408 130.019 44.312 130.019 43.048C130.019 41.8 130.267 40.712 130.763 39.784C131.259 38.84 131.947 38.112 132.827 37.6C133.723 37.072 134.755 36.808 135.923 36.808C137.075 36.808 138.067 37.072 138.899 37.6C139.747 38.112 140.395 38.792 140.843 39.64C141.291 40.488 141.515 41.4 141.515 42.376C141.515 42.552 141.507 42.728 141.491 42.904C141.491 43.08 141.491 43.28 141.491 43.504H132.011C132.059 44.416 132.267 45.176 132.635 45.784C133.019 46.376 133.491 46.824 134.051 47.128C134.627 47.432 135.235 47.584 135.875 47.584C136.707 47.584 137.403 47.392 137.963 47.008C138.523 46.624 138.931 46.104 139.187 45.448H141.179C140.859 46.552 140.243 47.472 139.331 48.208C138.435 48.928 137.283 49.288 135.875 49.288ZM135.875 38.512C134.915 38.512 134.059 38.808 133.307 39.4C132.571 39.976 132.147 40.824 132.035 41.944H139.523C139.475 40.872 139.107 40.032 138.419 39.424C137.731 38.816 136.883 38.512 135.875 38.512ZM144.187 49V31.72H146.203V49H144.187ZM154.068 49.288C152.644 49.288 151.46 48.928 150.516 48.208C149.572 47.488 149.02 46.512 148.86 45.28H150.924C151.052 45.904 151.38 46.448 151.908 46.912C152.452 47.36 153.18 47.584 154.092 47.584C154.94 47.584 155.564 47.408 155.964 47.056C156.364 46.688 156.564 46.256 156.564 45.76C156.564 45.04 156.3 44.56 155.772 44.32C155.26 44.08 154.532 43.864 153.588 43.672C152.948 43.544 152.308 43.36 151.668 43.12C151.028 42.88 150.492 42.544 150.06 42.112C149.628 41.664 149.412 41.08 149.412 40.36C149.412 39.32 149.796 38.472 150.564 37.816C151.348 37.144 152.404 36.808 153.732 36.808C154.996 36.808 156.028 37.128 156.828 37.768C157.644 38.392 158.116 39.288 158.244 40.456H156.252C156.172 39.848 155.908 39.376 155.46 39.04C155.028 38.688 154.444 38.512 153.708 38.512C152.988 38.512 152.428 38.664 152.028 38.968C151.644 39.272 151.452 39.672 151.452 40.168C151.452 40.648 151.7 41.024 152.196 41.296C152.708 41.568 153.396 41.8 154.26 41.992C154.996 42.152 155.692 42.352 156.348 42.592C157.02 42.816 157.564 43.16 157.98 43.624C158.412 44.072 158.628 44.728 158.628 45.592C158.644 46.664 158.236 47.552 157.404 48.256C156.588 48.944 155.476 49.288 154.068 49.288ZM162.204 49.12C161.804 49.12 161.468 48.992 161.196 48.736C160.94 48.464 160.812 48.136 160.812 47.752C160.812 47.368 160.94 47.048 161.196 46.792C161.468 46.52 161.804 46.384 162.204 46.384C162.588 46.384 162.908 46.52 163.164 46.792C163.436 47.048 163.572 47.368 163.572 47.752C163.572 48.136 163.436 48.464 163.164 48.736C162.908 48.992 162.588 49.12 162.204 49.12ZM172.667 49V32.2H175.019L181.067 43.912L187.067 32.2H189.443V49H187.427V35.8L181.811 46.6H180.299L174.683 35.824V49H172.667ZM198.339 49.288C197.107 49.288 196.035 49.064 195.123 48.616C194.211 48.168 193.507 47.544 193.011 46.744C192.515 45.944 192.267 45.016 192.267 43.96H194.379C194.379 44.616 194.531 45.224 194.835 45.784C195.139 46.328 195.579 46.768 196.155 47.104C196.747 47.424 197.475 47.584 198.339 47.584C199.475 47.584 200.355 47.312 200.979 46.768C201.603 46.224 201.915 45.544 201.915 44.728C201.915 44.056 201.771 43.52 201.483 43.12C201.195 42.704 200.803 42.368 200.307 42.112C199.827 41.856 199.267 41.632 198.627 41.44C198.003 41.248 197.347 41.032 196.659 40.792C195.363 40.344 194.403 39.792 193.779 39.136C193.155 38.464 192.843 37.592 192.843 36.52C192.827 35.624 193.035 34.832 193.467 34.144C193.899 33.44 194.507 32.896 195.291 32.512C196.091 32.112 197.035 31.912 198.123 31.912C199.195 31.912 200.123 32.112 200.907 32.512C201.707 32.912 202.323 33.464 202.755 34.168C203.203 34.872 203.435 35.672 203.451 36.568H201.339C201.339 36.104 201.219 35.648 200.979 35.2C200.739 34.736 200.371 34.36 199.875 34.072C199.395 33.784 198.787 33.64 198.051 33.64C197.139 33.624 196.387 33.856 195.795 34.336C195.219 34.816 194.931 35.48 194.931 36.328C194.931 37.048 195.131 37.6 195.531 37.984C195.947 38.368 196.523 38.688 197.259 38.944C197.995 39.184 198.843 39.464 199.803 39.784C200.603 40.072 201.323 40.408 201.963 40.792C202.603 41.176 203.099 41.672 203.451 42.28C203.819 42.888 204.003 43.664 204.003 44.608C204.003 45.408 203.795 46.168 203.379 46.888C202.963 47.592 202.331 48.168 201.483 48.616C200.651 49.064 199.603 49.288 198.339 49.288ZM220.582 49.288C218.934 49.288 217.51 48.928 216.31 48.208C215.126 47.472 214.206 46.456 213.55 45.16C212.894 43.848 212.566 42.328 212.566 40.6C212.566 38.888 212.894 37.384 213.55 36.088C214.206 34.776 215.126 33.752 216.31 33.016C217.51 32.28 218.934 31.912 220.582 31.912C222.502 31.912 224.062 32.376 225.262 33.304C226.478 34.216 227.254 35.496 227.59 37.144H225.358C225.102 36.104 224.574 35.272 223.773 34.648C222.99 34.008 221.926 33.688 220.582 33.688C219.382 33.688 218.334 33.968 217.438 34.528C216.542 35.072 215.846 35.864 215.35 36.904C214.87 37.928 214.63 39.16 214.63 40.6C214.63 42.04 214.87 43.28 215.35 44.32C215.846 45.344 216.542 46.136 217.438 46.696C218.334 47.24 219.382 47.512 220.582 47.512C221.926 47.512 222.99 47.208 223.773 46.6C224.574 45.976 225.102 45.152 225.358 44.128H227.59C227.254 45.744 226.478 47.008 225.262 47.92C224.062 48.832 222.502 49.288 220.582 49.288ZM230.367 49V31.72H232.383V39.136C232.783 38.4 233.351 37.832 234.087 37.432C234.823 37.016 235.623 36.808 236.487 36.808C237.863 36.808 238.967 37.24 239.799 38.104C240.631 38.952 241.047 40.264 241.047 42.04V49H239.055V42.256C239.055 39.776 238.055 38.536 236.055 38.536C235.015 38.536 234.143 38.912 233.439 39.664C232.735 40.4 232.383 41.456 232.383 42.832V49H230.367ZM248.061 49.288C247.069 49.288 246.245 49.12 245.589 48.784C244.933 48.448 244.445 48 244.125 47.44C243.805 46.88 243.645 46.272 243.645 45.616C243.645 44.4 244.109 43.464 245.037 42.808C245.965 42.152 247.229 41.824 248.829 41.824H252.045V41.68C252.045 40.64 251.773 39.856 251.229 39.328C250.685 38.784 249.957 38.512 249.045 38.512C248.261 38.512 247.581 38.712 247.005 39.112C246.445 39.496 246.093 40.064 245.949 40.816H243.885C243.965 39.952 244.253 39.224 244.749 38.632C245.261 38.04 245.893 37.592 246.645 37.288C247.397 36.968 248.197 36.808 249.045 36.808C250.709 36.808 251.957 37.256 252.789 38.152C253.637 39.032 254.061 40.208 254.061 41.68V49H252.261L252.141 46.864C251.805 47.536 251.309 48.112 250.653 48.592C250.013 49.056 249.149 49.288 248.061 49.288ZM248.373 47.584C249.141 47.584 249.797 47.384 250.341 46.984C250.901 46.584 251.325 46.064 251.613 45.424C251.901 44.784 252.045 44.112 252.045 43.408V43.384H248.997C247.813 43.384 246.973 43.592 246.477 44.008C245.997 44.408 245.757 44.912 245.757 45.52C245.757 46.144 245.981 46.648 246.429 47.032C246.893 47.4 247.541 47.584 248.373 47.584ZM257.086 49V37.096H258.91L259.03 39.232C259.414 38.48 259.966 37.888 260.686 37.456C261.406 37.024 262.222 36.808 263.134 36.808C264.542 36.808 265.662 37.24 266.494 38.104C267.342 38.952 267.766 40.264 267.766 42.04V49H265.75V42.256C265.75 39.776 264.726 38.536 262.678 38.536C261.654 38.536 260.798 38.912 260.11 39.664C259.438 40.4 259.102 41.456 259.102 42.832V49H257.086ZM270.82 49V37.096H272.644L272.764 39.232C273.148 38.48 273.7 37.888 274.42 37.456C275.14 37.024 275.956 36.808 276.868 36.808C278.276 36.808 279.396 37.24 280.228 38.104C281.076 38.952 281.5 40.264 281.5 42.04V49H279.484V42.256C279.484 39.776 278.46 38.536 276.412 38.536C275.388 38.536 274.532 38.912 273.844 39.664C273.172 40.4 272.836 41.456 272.836 42.832V49H270.82ZM289.906 49.288C288.77 49.288 287.762 49.032 286.882 48.52C286.002 47.992 285.306 47.264 284.794 46.336C284.298 45.408 284.05 44.312 284.05 43.048C284.05 41.8 284.298 40.712 284.794 39.784C285.29 38.84 285.978 38.112 286.858 37.6C287.754 37.072 288.786 36.808 289.954 36.808C291.106 36.808 292.098 37.072 292.93 37.6C293.778 38.112 294.426 38.792 294.874 39.64C295.322 40.488 295.546 41.4 295.546 42.376C295.546 42.552 295.538 42.728 295.522 42.904C295.522 43.08 295.522 43.28 295.522 43.504H286.042C286.09 44.416 286.298 45.176 286.666 45.784C287.05 46.376 287.522 46.824 288.082 47.128C288.658 47.432 289.266 47.584 289.906 47.584C290.738 47.584 291.434 47.392 291.994 47.008C292.554 46.624 292.962 46.104 293.218 45.448H295.21C294.89 46.552 294.274 47.472 293.362 48.208C292.466 48.928 291.314 49.288 289.906 49.288ZM289.906 38.512C288.946 38.512 288.09 38.808 287.338 39.4C286.602 39.976 286.178 40.824 286.066 41.944H293.554C293.506 40.872 293.138 40.032 292.45 39.424C291.762 38.816 290.914 38.512 289.906 38.512ZM298.219 49V31.72H300.235V49H298.219ZM308.099 49.288C306.675 49.288 305.491 48.928 304.547 48.208C303.603 47.488 303.051 46.512 302.891 45.28H304.955C305.083 45.904 305.411 46.448 305.939 46.912C306.483 47.36 307.211 47.584 308.123 47.584C308.971 47.584 309.595 47.408 309.995 47.056C310.395 46.688 310.595 46.256 310.595 45.76C310.595 45.04 310.331 44.56 309.803 44.32C309.291 44.08 308.563 43.864 307.619 43.672C306.979 43.544 306.339 43.36 305.699 43.12C305.059 42.88 304.523 42.544 304.091 42.112C303.659 41.664 303.443 41.08 303.443 40.36C303.443 39.32 303.827 38.472 304.595 37.816C305.379 37.144 306.435 36.808 307.763 36.808C309.027 36.808 310.059 37.128 310.859 37.768C311.675 38.392 312.147 39.288 312.275 40.456H310.283C310.203 39.848 309.939 39.376 309.491 39.04C309.059 38.688 308.475 38.512 307.739 38.512C307.019 38.512 306.459 38.664 306.059 38.968C305.675 39.272 305.483 39.672 305.483 40.168C305.483 40.648 305.731 41.024 306.227 41.296C306.739 41.568 307.427 41.8 308.291 41.992C309.027 42.152 309.723 42.352 310.379 42.592C311.051 42.816 311.595 43.16 312.011 43.624C312.443 44.072 312.659 44.728 312.659 45.592C312.675 46.664 312.267 47.552 311.435 48.256C310.619 48.944 309.507 49.288 308.099 49.288ZM325.85 49.288C324.858 49.288 324.034 49.12 323.378 48.784C322.722 48.448 322.234 48 321.914 47.44C321.594 46.88 321.434 46.272 321.434 45.616C321.434 44.4 321.898 43.464 322.826 42.808C323.754 42.152 325.018 41.824 326.618 41.824H329.834V41.68C329.834 40.64 329.562 39.856 329.018 39.328C328.474 38.784 327.746 38.512 326.834 38.512C326.05 38.512 325.37 38.712 324.794 39.112C324.234 39.496 323.882 40.064 323.738 40.816H321.674C321.754 39.952 322.042 39.224 322.538 38.632C323.05 38.04 323.682 37.592 324.434 37.288C325.186 36.968 325.986 36.808 326.834 36.808C328.498 36.808 329.746 37.256 330.578 38.152C331.426 39.032 331.85 40.208 331.85 41.68V49H330.05L329.93 46.864C329.594 47.536 329.098 48.112 328.442 48.592C327.802 49.056 326.938 49.288 325.85 49.288ZM326.162 47.584C326.93 47.584 327.586 47.384 328.13 46.984C328.69 46.584 329.114 46.064 329.402 45.424C329.69 44.784 329.834 44.112 329.834 43.408V43.384H326.786C325.602 43.384 324.762 43.592 324.266 44.008C323.786 44.408 323.546 44.912 323.546 45.52C323.546 46.144 323.77 46.648 324.218 47.032C324.682 47.4 325.33 47.584 326.162 47.584ZM334.875 49V37.096H336.699L336.867 39.376C337.235 38.592 337.795 37.968 338.547 37.504C339.299 37.04 340.227 36.808 341.331 36.808V38.92H340.779C340.075 38.92 339.427 39.048 338.835 39.304C338.243 39.544 337.771 39.96 337.419 40.552C337.067 41.144 336.891 41.96 336.891 43V49H334.875ZM348.5 49.288C347.364 49.288 346.356 49.032 345.476 48.52C344.596 47.992 343.9 47.264 343.388 46.336C342.892 45.408 342.644 44.312 342.644 43.048C342.644 41.8 342.892 40.712 343.388 39.784C343.884 38.84 344.572 38.112 345.452 37.6C346.348 37.072 347.38 36.808 348.548 36.808C349.7 36.808 350.692 37.072 351.524 37.6C352.372 38.112 353.02 38.792 353.468 39.64C353.916 40.488 354.14 41.4 354.14 42.376C354.14 42.552 354.132 42.728 354.116 42.904C354.116 43.08 354.116 43.28 354.116 43.504H344.636C344.684 44.416 344.892 45.176 345.26 45.784C345.644 46.376 346.116 46.824 346.676 47.128C347.252 47.432 347.86 47.584 348.5 47.584C349.332 47.584 350.028 47.392 350.588 47.008C351.148 46.624 351.556 46.104 351.812 45.448H353.804C353.484 46.552 352.868 47.472 351.956 48.208C351.06 48.928 349.908 49.288 348.5 49.288ZM348.5 38.512C347.54 38.512 346.684 38.808 345.932 39.4C345.196 39.976 344.772 40.824 344.66 41.944H352.148C352.1 40.872 351.732 40.032 351.044 39.424C350.356 38.816 349.508 38.512 348.5 38.512ZM367.508 49.288C366.1 49.288 364.98 48.864 364.148 48.016C363.316 47.152 362.9 45.832 362.9 44.056V37.096H364.916V43.84C364.916 46.32 365.932 47.56 367.964 47.56C369.004 47.56 369.86 47.192 370.532 46.456C371.22 45.704 371.564 44.64 371.564 43.264V37.096H373.58V49H371.756L371.612 46.864C371.244 47.616 370.692 48.208 369.956 48.64C369.236 49.072 368.42 49.288 367.508 49.288ZM381.458 49.288C380.034 49.288 378.85 48.928 377.906 48.208C376.962 47.488 376.41 46.512 376.25 45.28H378.314C378.442 45.904 378.77 46.448 379.298 46.912C379.842 47.36 380.57 47.584 381.482 47.584C382.33 47.584 382.954 47.408 383.354 47.056C383.754 46.688 383.954 46.256 383.954 45.76C383.954 45.04 383.69 44.56 383.162 44.32C382.65 44.08 381.922 43.864 380.978 43.672C380.338 43.544 379.698 43.36 379.058 43.12C378.418 42.88 377.882 42.544 377.45 42.112C377.018 41.664 376.802 41.08 376.802 40.36C376.802 39.32 377.186 38.472 377.954 37.816C378.738 37.144 379.794 36.808 381.122 36.808C382.386 36.808 383.418 37.128 384.218 37.768C385.034 38.392 385.506 39.288 385.634 40.456H383.642C383.562 39.848 383.298 39.376 382.85 39.04C382.418 38.688 381.834 38.512 381.098 38.512C380.378 38.512 379.818 38.664 379.418 38.968C379.034 39.272 378.842 39.672 378.842 40.168C378.842 40.648 379.09 41.024 379.586 41.296C380.098 41.568 380.786 41.8 381.65 41.992C382.386 42.152 383.082 42.352 383.738 42.592C384.41 42.816 384.954 43.16 385.37 43.624C385.802 44.072 386.018 44.728 386.018 45.592C386.034 46.664 385.626 47.552 384.794 48.256C383.978 48.944 382.866 49.288 381.458 49.288ZM394.25 49.288C393.114 49.288 392.106 49.032 391.226 48.52C390.346 47.992 389.65 47.264 389.138 46.336C388.642 45.408 388.394 44.312 388.394 43.048C388.394 41.8 388.642 40.712 389.138 39.784C389.634 38.84 390.322 38.112 391.202 37.6C392.098 37.072 393.13 36.808 394.298 36.808C395.45 36.808 396.442 37.072 397.274 37.6C398.122 38.112 398.77 38.792 399.218 39.64C399.666 40.488 399.89 41.4 399.89 42.376C399.89 42.552 399.882 42.728 399.866 42.904C399.866 43.08 399.866 43.28 399.866 43.504H390.386C390.434 44.416 390.642 45.176 391.01 45.784C391.394 46.376 391.866 46.824 392.426 47.128C393.002 47.432 393.61 47.584 394.25 47.584C395.082 47.584 395.778 47.392 396.338 47.008C396.898 46.624 397.306 46.104 397.562 45.448H399.554C399.234 46.552 398.618 47.472 397.706 48.208C396.81 48.928 395.658 49.288 394.25 49.288ZM394.25 38.512C393.29 38.512 392.434 38.808 391.682 39.4C390.946 39.976 390.522 40.824 390.41 41.944H397.898C397.85 40.872 397.482 40.032 396.794 39.424C396.106 38.816 395.258 38.512 394.25 38.512ZM407.962 49.288C406.778 49.288 405.738 49.016 404.842 48.472C403.962 47.928 403.274 47.184 402.778 46.24C402.298 45.296 402.058 44.224 402.058 43.024C402.058 41.824 402.306 40.76 402.802 39.832C403.298 38.888 403.986 38.152 404.866 37.624C405.746 37.08 406.786 36.808 407.986 36.808C408.962 36.808 409.826 37.008 410.578 37.408C411.33 37.808 411.914 38.368 412.33 39.088V31.72H414.346V49H412.522L412.33 47.032C411.946 47.608 411.394 48.128 410.674 48.592C409.954 49.056 409.05 49.288 407.962 49.288ZM408.178 47.536C408.978 47.536 409.682 47.352 410.29 46.984C410.914 46.6 411.394 46.072 411.73 45.4C412.082 44.728 412.258 43.944 412.258 43.048C412.258 42.152 412.082 41.368 411.73 40.696C411.394 40.024 410.914 39.504 410.29 39.136C409.682 38.752 408.978 38.56 408.178 38.56C407.394 38.56 406.69 38.752 406.066 39.136C405.458 39.504 404.978 40.024 404.626 40.696C404.29 41.368 404.122 42.152 404.122 43.048C404.122 43.944 404.29 44.728 404.626 45.4C404.978 46.072 405.458 46.6 406.066 46.984C406.69 47.352 407.394 47.536 408.178 47.536ZM424.632 49V38.8H422.832V37.096H424.632V35.032C424.632 33.88 424.92 33.04 425.496 32.512C426.072 31.984 426.912 31.72 428.016 31.72H429.216V33.448H428.328C427.72 33.448 427.288 33.576 427.032 33.832C426.776 34.072 426.648 34.488 426.648 35.08V37.096H429.576V38.8H426.648V49H424.632ZM436.932 49.288C435.812 49.288 434.804 49.032 433.908 48.52C433.012 48.008 432.3 47.288 431.772 46.36C431.26 45.416 431.004 44.312 431.004 43.048C431.004 41.784 431.268 40.688 431.796 39.76C432.324 38.816 433.036 38.088 433.932 37.576C434.844 37.064 435.86 36.808 436.98 36.808C438.1 36.808 439.108 37.064 440.004 37.576C440.9 38.088 441.604 38.816 442.116 39.76C442.644 40.688 442.908 41.784 442.908 43.048C442.908 44.312 442.644 45.416 442.116 46.36C441.588 47.288 440.868 48.008 439.956 48.52C439.06 49.032 438.052 49.288 436.932 49.288ZM436.932 47.56C437.62 47.56 438.26 47.392 438.852 47.056C439.444 46.72 439.924 46.216 440.292 45.544C440.66 44.872 440.844 44.04 440.844 43.048C440.844 42.056 440.66 41.224 440.292 40.552C439.94 39.88 439.468 39.376 438.876 39.04C438.284 38.704 437.652 38.536 436.98 38.536C436.292 38.536 435.652 38.704 435.06 39.04C434.468 39.376 433.988 39.88 433.62 40.552C433.252 41.224 433.068 42.056 433.068 43.048C433.068 44.04 433.252 44.872 433.62 45.544C433.988 46.216 434.46 46.72 435.036 47.056C435.628 47.392 436.26 47.56 436.932 47.56ZM445.711 49V37.096H447.535L447.703 39.376C448.071 38.592 448.631 37.968 449.383 37.504C450.135 37.04 451.063 36.808 452.167 36.808V38.92H451.615C450.911 38.92 450.263 39.048 449.671 39.304C449.079 39.544 448.607 39.96 448.255 40.552C447.903 41.144 447.727 41.96 447.727 43V49H445.711ZM0.656 80V68.096H2.48L2.624 69.824C3.008 69.184 3.52 68.688 4.16 68.336C4.8 67.984 5.52 67.808 6.32 67.808C7.264 67.808 8.072 68 8.744 68.384C9.432 68.768 9.96 69.352 10.328 70.136C10.744 69.416 11.312 68.848 12.032 68.432C12.768 68.016 13.56 67.808 14.408 67.808C15.832 67.808 16.968 68.24 17.816 69.104C18.664 69.952 19.088 71.264 19.088 73.04V80H17.096V73.256C17.096 72.024 16.848 71.096 16.352 70.472C15.856 69.848 15.144 69.536 14.216 69.536C13.256 69.536 12.456 69.912 11.816 70.664C11.192 71.4 10.88 72.456 10.88 73.832V80H8.864V73.256C8.864 72.024 8.616 71.096 8.12 70.472C7.624 69.848 6.912 69.536 5.984 69.536C5.04 69.536 4.248 69.912 3.608 70.664C2.984 71.4 2.672 72.456 2.672 73.832V80H0.656ZM26.0848 80.288C25.0928 80.288 24.2688 80.12 23.6128 79.784C22.9568 79.448 22.4688 79 22.1488 78.44C21.8288 77.88 21.6688 77.272 21.6688 76.616C21.6688 75.4 22.1328 74.464 23.0608 73.808C23.9888 73.152 25.2528 72.824 26.8528 72.824H30.0688V72.68C30.0688 71.64 29.7968 70.856 29.2528 70.328C28.7088 69.784 27.9808 69.512 27.0688 69.512C26.2848 69.512 25.6048 69.712 25.0288 70.112C24.4688 70.496 24.1168 71.064 23.9728 71.816H21.9088C21.9888 70.952 22.2768 70.224 22.7728 69.632C23.2848 69.04 23.9168 68.592 24.6688 68.288C25.4208 67.968 26.2208 67.808 27.0688 67.808C28.7328 67.808 29.9808 68.256 30.8128 69.152C31.6608 70.032 32.0848 71.208 32.0848 72.68V80H30.2848L30.1648 77.864C29.8288 78.536 29.3328 79.112 28.6768 79.592C28.0368 80.056 27.1728 80.288 26.0848 80.288ZM26.3968 78.584C27.1648 78.584 27.8208 78.384 28.3648 77.984C28.9248 77.584 29.3488 77.064 29.6368 76.424C29.9248 75.784 30.0688 75.112 30.0688 74.408V74.384H27.0208C25.8368 74.384 24.9968 74.592 24.5008 75.008C24.0208 75.408 23.7808 75.912 23.7808 76.52C23.7808 77.144 24.0048 77.648 24.4528 78.032C24.9168 78.4 25.5648 78.584 26.3968 78.584ZM35.1091 80V68.096H36.9331L37.0531 70.232C37.4371 69.48 37.9891 68.888 38.7091 68.456C39.4291 68.024 40.2451 67.808 41.1571 67.808C42.5651 67.808 43.6851 68.24 44.5171 69.104C45.3651 69.952 45.7891 71.264 45.7891 73.04V80H43.7731V73.256C43.7731 70.776 42.7491 69.536 40.7011 69.536C39.6771 69.536 38.8211 69.912 38.1331 70.664C37.4611 71.4 37.1251 72.456 37.1251 73.832V80H35.1091ZM53.1875 80.288C51.7795 80.288 50.6595 79.864 49.8275 79.016C48.9955 78.152 48.5795 76.832 48.5795 75.056V68.096H50.5955V74.84C50.5955 77.32 51.6115 78.56 53.6435 78.56C54.6835 78.56 55.5395 78.192 56.2115 77.456C56.8995 76.704 57.2435 75.64 57.2435 74.264V68.096H59.2595V80H57.4355L57.2915 77.864C56.9235 78.616 56.3715 79.208 55.6355 79.64C54.9155 80.072 54.0995 80.288 53.1875 80.288ZM63.2259 80V69.8H61.4259V68.096H63.2259V66.032C63.2259 64.88 63.5139 64.04 64.0899 63.512C64.6659 62.984 65.5059 62.72 66.6099 62.72H67.8099V64.448H66.9219C66.3139 64.448 65.8819 64.576 65.6259 64.832C65.3699 65.072 65.2419 65.488 65.2419 66.08V68.096H68.1699V69.8H65.2419V80H63.2259ZM74.0613 80.288C73.0693 80.288 72.2453 80.12 71.5893 79.784C70.9333 79.448 70.4453 79 70.1253 78.44C69.8053 77.88 69.6453 77.272 69.6453 76.616C69.6453 75.4 70.1093 74.464 71.0373 73.808C71.9653 73.152 73.2293 72.824 74.8293 72.824H78.0453V72.68C78.0453 71.64 77.7733 70.856 77.2293 70.328C76.6853 69.784 75.9573 69.512 75.0453 69.512C74.2613 69.512 73.5813 69.712 73.0053 70.112C72.4453 70.496 72.0933 71.064 71.9493 71.816H69.8853C69.9653 70.952 70.2533 70.224 70.7493 69.632C71.2613 69.04 71.8933 68.592 72.6453 68.288C73.3973 67.968 74.1973 67.808 75.0453 67.808C76.7093 67.808 77.9573 68.256 78.7893 69.152C79.6373 70.032 80.0613 71.208 80.0613 72.68V80H78.2613L78.1413 77.864C77.8053 78.536 77.3093 79.112 76.6533 79.592C76.0133 80.056 75.1493 80.288 74.0613 80.288ZM74.3733 78.584C75.1413 78.584 75.7973 78.384 76.3413 77.984C76.9013 77.584 77.3253 77.064 77.6133 76.424C77.9013 75.784 78.0453 75.112 78.0453 74.408V74.384H74.9973C73.8133 74.384 72.9733 74.592 72.4773 75.008C71.9973 75.408 71.7573 75.912 71.7573 76.52C71.7573 77.144 71.9813 77.648 72.4293 78.032C72.8933 78.4 73.5413 78.584 74.3733 78.584ZM88.5577 80.288C87.4217 80.288 86.3977 80.032 85.4857 79.52C84.5897 78.992 83.8777 78.264 83.3497 77.336C82.8377 76.392 82.5817 75.296 82.5817 74.048C82.5817 72.8 82.8377 71.712 83.3497 70.784C83.8777 69.84 84.5897 69.112 85.4857 68.6C86.3977 68.072 87.4217 67.808 88.5577 67.808C89.9657 67.808 91.1497 68.176 92.1097 68.912C93.0857 69.648 93.7017 70.632 93.9577 71.864H91.8937C91.7337 71.128 91.3417 70.56 90.7177 70.16C90.0937 69.744 89.3657 69.536 88.5337 69.536C87.8617 69.536 87.2297 69.704 86.6377 70.04C86.0457 70.376 85.5657 70.88 85.1977 71.552C84.8297 72.224 84.6457 73.056 84.6457 74.048C84.6457 75.04 84.8297 75.872 85.1977 76.544C85.5657 77.216 86.0457 77.728 86.6377 78.08C87.2297 78.416 87.8617 78.584 88.5337 78.584C89.3657 78.584 90.0937 78.384 90.7177 77.984C91.3417 77.568 91.7337 76.984 91.8937 76.232H93.9577C93.7177 77.432 93.1097 78.408 92.1337 79.16C91.1577 79.912 89.9657 80.288 88.5577 80.288ZM101.149 80C100.061 80 99.2051 79.736 98.5811 79.208C97.9571 78.68 97.6451 77.728 97.6451 76.352V69.8H95.5811V68.096H97.6451L97.9091 65.24H99.6611V68.096H103.165V69.8H99.6611V76.352C99.6611 77.104 99.8131 77.616 100.117 77.888C100.421 78.144 100.957 78.272 101.725 78.272H102.973V80H101.149ZM110.07 80.288C108.662 80.288 107.542 79.864 106.71 79.016C105.878 78.152 105.462 76.832 105.462 75.056V68.096H107.478V74.84C107.478 77.32 108.494 78.56 110.526 78.56C111.566 78.56 112.422 78.192 113.094 77.456C113.782 76.704 114.126 75.64 114.126 74.264V68.096H116.142V80H114.318L114.174 77.864C113.806 78.616 113.254 79.208 112.518 79.64C111.798 80.072 110.982 80.288 110.07 80.288ZM119.461 80V68.096H121.285L121.453 70.376C121.821 69.592 122.381 68.968 123.133 68.504C123.885 68.04 124.813 67.808 125.917 67.808V69.92H125.365C124.661 69.92 124.013 70.048 123.421 70.304C122.829 70.544 122.357 70.96 122.005 71.552C121.653 72.144 121.477 72.96 121.477 74V80H119.461ZM129.403 65.456C129.003 65.456 128.667 65.328 128.395 65.072C128.139 64.8 128.011 64.464 128.011 64.064C128.011 63.68 128.139 63.36 128.395 63.104C128.667 62.848 129.003 62.72 129.403 62.72C129.787 62.72 130.115 62.848 130.387 63.104C130.659 63.36 130.795 63.68 130.795 64.064C130.795 64.464 130.659 64.8 130.387 65.072C130.115 65.328 129.787 65.456 129.403 65.456ZM128.395 80V68.096H130.411V80H128.395ZM133.922 80V68.096H135.746L135.866 70.232C136.25 69.48 136.802 68.888 137.522 68.456C138.242 68.024 139.058 67.808 139.97 67.808C141.378 67.808 142.498 68.24 143.33 69.104C144.178 69.952 144.602 71.264 144.602 73.04V80H142.586V73.256C142.586 70.776 141.562 69.536 139.514 69.536C138.49 69.536 137.634 69.912 136.946 70.664C136.274 71.4 135.938 72.456 135.938 73.832V80H133.922ZM152.36 76.256C151.688 76.256 151.072 76.168 150.512 75.992L149.312 77.12C149.488 77.248 149.704 77.36 149.96 77.456C150.232 77.536 150.616 77.616 151.112 77.696C151.608 77.76 152.304 77.832 153.2 77.912C154.8 78.024 155.944 78.392 156.632 79.016C157.32 79.64 157.664 80.456 157.664 81.464C157.664 82.152 157.472 82.808 157.088 83.432C156.72 84.056 156.144 84.568 155.36 84.968C154.592 85.368 153.6 85.568 152.384 85.568C151.312 85.568 150.36 85.424 149.528 85.136C148.696 84.864 148.048 84.44 147.584 83.864C147.12 83.304 146.888 82.592 146.888 81.728C146.888 81.28 147.008 80.792 147.248 80.264C147.488 79.752 147.936 79.264 148.592 78.8C148.24 78.656 147.936 78.504 147.68 78.344C147.44 78.168 147.216 77.976 147.008 77.768V77.216L149.048 75.2C148.104 74.4 147.632 73.344 147.632 72.032C147.632 71.248 147.816 70.536 148.184 69.896C148.552 69.256 149.088 68.752 149.792 68.384C150.496 68 151.352 67.808 152.36 67.808C153.048 67.808 153.672 67.904 154.232 68.096H158.624V69.608L156.392 69.704C156.856 70.376 157.088 71.152 157.088 72.032C157.088 72.816 156.896 73.528 156.512 74.168C156.144 74.808 155.608 75.32 154.904 75.704C154.216 76.072 153.368 76.256 152.36 76.256ZM152.36 74.6C153.208 74.6 153.88 74.384 154.376 73.952C154.888 73.504 155.144 72.864 155.144 72.032C155.144 71.216 154.888 70.592 154.376 70.16C153.88 69.712 153.208 69.488 152.36 69.488C151.496 69.488 150.808 69.712 150.296 70.16C149.8 70.592 149.552 71.216 149.552 72.032C149.552 72.864 149.8 73.504 150.296 73.952C150.808 74.384 151.496 74.6 152.36 74.6ZM148.856 81.536C148.856 82.336 149.192 82.928 149.864 83.312C150.536 83.712 151.376 83.912 152.384 83.912C153.376 83.912 154.168 83.696 154.76 83.264C155.368 82.832 155.672 82.256 155.672 81.536C155.672 81.024 155.464 80.576 155.048 80.192C154.632 79.824 153.864 79.608 152.744 79.544C151.864 79.48 151.104 79.4 150.464 79.304C149.808 79.656 149.376 80.032 149.168 80.432C148.96 80.848 148.856 81.216 148.856 81.536ZM172.674 80.288C171.554 80.288 170.546 80.032 169.65 79.52C168.754 79.008 168.042 78.288 167.514 77.36C167.002 76.416 166.746 75.312 166.746 74.048C166.746 72.784 167.01 71.688 167.538 70.76C168.066 69.816 168.778 69.088 169.674 68.576C170.586 68.064 171.602 67.808 172.722 67.808C173.842 67.808 174.85 68.064 175.746 68.576C176.642 69.088 177.346 69.816 177.858 70.76C178.386 71.688 178.65 72.784 178.65 74.048C178.65 75.312 178.386 76.416 177.858 77.36C177.33 78.288 176.61 79.008 175.698 79.52C174.802 80.032 173.794 80.288 172.674 80.288ZM172.674 78.56C173.362 78.56 174.002 78.392 174.594 78.056C175.186 77.72 175.666 77.216 176.034 76.544C176.402 75.872 176.586 75.04 176.586 74.048C176.586 73.056 176.402 72.224 176.034 71.552C175.682 70.88 175.21 70.376 174.618 70.04C174.026 69.704 173.394 69.536 172.722 69.536C172.034 69.536 171.394 69.704 170.802 70.04C170.21 70.376 169.73 70.88 169.362 71.552C168.994 72.224 168.81 73.056 168.81 74.048C168.81 75.04 168.994 75.872 169.362 76.544C169.73 77.216 170.202 77.72 170.778 78.056C171.37 78.392 172.002 78.56 172.674 78.56ZM182.101 80V69.8H180.301V68.096H182.101V66.032C182.101 64.88 182.389 64.04 182.965 63.512C183.541 62.984 184.381 62.72 185.485 62.72H186.685V64.448H185.797C185.189 64.448 184.757 64.576 184.501 64.832C184.245 65.072 184.117 65.488 184.117 66.08V68.096H187.045V69.8H184.117V80H182.101ZM200.501 80C199.413 80 198.557 79.736 197.933 79.208C197.309 78.68 196.997 77.728 196.997 76.352V69.8H194.933V68.096H196.997L197.261 65.24H199.013V68.096H202.517V69.8H199.013V76.352C199.013 77.104 199.165 77.616 199.469 77.888C199.773 78.144 200.309 78.272 201.077 78.272H202.325V80H200.501ZM205.078 80V68.096H206.902L207.07 70.376C207.438 69.592 207.998 68.968 208.75 68.504C209.502 68.04 210.43 67.808 211.534 67.808V69.92H210.982C210.278 69.92 209.63 70.048 209.038 70.304C208.446 70.544 207.974 70.96 207.622 71.552C207.27 72.144 207.094 72.96 207.094 74V80H205.078ZM218.141 80.288C216.733 80.288 215.613 79.864 214.781 79.016C213.949 78.152 213.533 76.832 213.533 75.056V68.096H215.549V74.84C215.549 77.32 216.565 78.56 218.597 78.56C219.637 78.56 220.493 78.192 221.165 77.456C221.853 76.704 222.197 75.64 222.197 74.264V68.096H224.213V80H222.389L222.245 77.864C221.877 78.616 221.325 79.208 220.589 79.64C219.869 80.072 219.053 80.288 218.141 80.288ZM233.003 80.288C231.867 80.288 230.843 80.032 229.931 79.52C229.035 78.992 228.323 78.264 227.795 77.336C227.283 76.392 227.027 75.296 227.027 74.048C227.027 72.8 227.283 71.712 227.795 70.784C228.323 69.84 229.035 69.112 229.931 68.6C230.843 68.072 231.867 67.808 233.003 67.808C234.411 67.808 235.595 68.176 236.555 68.912C237.531 69.648 238.147 70.632 238.403 71.864H236.339C236.179 71.128 235.787 70.56 235.163 70.16C234.539 69.744 233.811 69.536 232.979 69.536C232.307 69.536 231.675 69.704 231.083 70.04C230.491 70.376 230.011 70.88 229.643 71.552C229.275 72.224 229.091 73.056 229.091 74.048C229.091 75.04 229.275 75.872 229.643 76.544C230.011 77.216 230.491 77.728 231.083 78.08C231.675 78.416 232.307 78.584 232.979 78.584C233.811 78.584 234.539 78.384 235.163 77.984C235.787 77.568 236.179 76.984 236.339 76.232H238.403C238.163 77.432 237.555 78.408 236.579 79.16C235.603 79.912 234.411 80.288 233.003 80.288ZM241.219 80V62.72H243.235V73.112L248.107 68.096H250.579L245.299 73.472L251.251 80H248.683L243.235 73.832V80H241.219ZM253.072 73.88V72.176H262.576V73.88H253.072ZM270.321 80C269.233 80 268.377 79.736 267.753 79.208C267.129 78.68 266.817 77.728 266.817 76.352V69.8H264.753V68.096H266.817L267.081 65.24H268.833V68.096H272.337V69.8H268.833V76.352C268.833 77.104 268.985 77.616 269.289 77.888C269.593 78.144 270.129 78.272 270.897 78.272H272.145V80H270.321ZM274.898 80V68.096H276.722L276.89 70.376C277.258 69.592 277.818 68.968 278.57 68.504C279.322 68.04 280.25 67.808 281.354 67.808V69.92H280.802C280.098 69.92 279.45 70.048 278.858 70.304C278.266 70.544 277.794 70.96 277.442 71.552C277.09 72.144 276.914 72.96 276.914 74V80H274.898ZM287.577 80.288C286.585 80.288 285.761 80.12 285.105 79.784C284.449 79.448 283.961 79 283.641 78.44C283.321 77.88 283.161 77.272 283.161 76.616C283.161 75.4 283.625 74.464 284.553 73.808C285.481 73.152 286.745 72.824 288.345 72.824H291.561V72.68C291.561 71.64 291.289 70.856 290.745 70.328C290.201 69.784 289.473 69.512 288.561 69.512C287.777 69.512 287.097 69.712 286.521 70.112C285.961 70.496 285.609 71.064 285.465 71.816H283.401C283.481 70.952 283.769 70.224 284.265 69.632C284.777 69.04 285.409 68.592 286.161 68.288C286.913 67.968 287.713 67.808 288.561 67.808C290.225 67.808 291.473 68.256 292.305 69.152C293.153 70.032 293.577 71.208 293.577 72.68V80H291.777L291.657 77.864C291.321 78.536 290.825 79.112 290.169 79.592C289.529 80.056 288.665 80.288 287.577 80.288ZM287.889 78.584C288.657 78.584 289.313 78.384 289.857 77.984C290.417 77.584 290.841 77.064 291.129 76.424C291.417 75.784 291.561 75.112 291.561 74.408V74.384H288.513C287.329 74.384 286.489 74.592 285.993 75.008C285.513 75.408 285.273 75.912 285.273 76.52C285.273 77.144 285.497 77.648 285.945 78.032C286.409 78.4 287.057 78.584 287.889 78.584ZM297.825 65.456C297.425 65.456 297.089 65.328 296.817 65.072C296.561 64.8 296.433 64.464 296.433 64.064C296.433 63.68 296.561 63.36 296.817 63.104C297.089 62.848 297.425 62.72 297.825 62.72C298.209 62.72 298.537 62.848 298.809 63.104C299.081 63.36 299.217 63.68 299.217 64.064C299.217 64.464 299.081 64.8 298.809 65.072C298.537 65.328 298.209 65.456 297.825 65.456ZM296.817 80V68.096H298.833V80H296.817ZM302.344 80V62.72H304.36V80H302.344ZM313.016 80.288C311.88 80.288 310.872 80.032 309.992 79.52C309.112 78.992 308.416 78.264 307.904 77.336C307.408 76.408 307.16 75.312 307.16 74.048C307.16 72.8 307.408 71.712 307.904 70.784C308.4 69.84 309.088 69.112 309.968 68.6C310.864 68.072 311.896 67.808 313.064 67.808C314.216 67.808 315.208 68.072 316.04 68.6C316.888 69.112 317.536 69.792 317.984 70.64C318.432 71.488 318.656 72.4 318.656 73.376C318.656 73.552 318.648 73.728 318.632 73.904C318.632 74.08 318.632 74.28 318.632 74.504H309.152C309.2 75.416 309.408 76.176 309.776 76.784C310.16 77.376 310.632 77.824 311.192 78.128C311.768 78.432 312.376 78.584 313.016 78.584C313.848 78.584 314.544 78.392 315.104 78.008C315.664 77.624 316.072 77.104 316.328 76.448H318.32C318 77.552 317.384 78.472 316.472 79.208C315.576 79.928 314.424 80.288 313.016 80.288ZM313.016 69.512C312.056 69.512 311.2 69.808 310.448 70.4C309.712 70.976 309.288 71.824 309.176 72.944H316.664C316.616 71.872 316.248 71.032 315.56 70.424C314.872 69.816 314.024 69.512 313.016 69.512ZM321.328 80V68.096H323.152L323.32 70.376C323.688 69.592 324.248 68.968 325 68.504C325.752 68.04 326.68 67.808 327.784 67.808V69.92H327.232C326.528 69.92 325.88 70.048 325.288 70.304C324.696 70.544 324.224 70.96 323.872 71.552C323.52 72.144 323.344 72.96 323.344 74V80H321.328ZM334.607 80.288C333.183 80.288 331.999 79.928 331.055 79.208C330.111 78.488 329.559 77.512 329.399 76.28H331.463C331.591 76.904 331.919 77.448 332.447 77.912C332.991 78.36 333.719 78.584 334.631 78.584C335.479 78.584 336.103 78.408 336.503 78.056C336.903 77.688 337.103 77.256 337.103 76.76C337.103 76.04 336.839 75.56 336.311 75.32C335.799 75.08 335.071 74.864 334.127 74.672C333.487 74.544 332.847 74.36 332.207 74.12C331.567 73.88 331.031 73.544 330.599 73.112C330.167 72.664 329.951 72.08 329.951 71.36C329.951 70.32 330.335 69.472 331.103 68.816C331.887 68.144 332.943 67.808 334.271 67.808C335.535 67.808 336.567 68.128 337.367 68.768C338.183 69.392 338.655 70.288 338.783 71.456H336.791C336.711 70.848 336.447 70.376 335.999 70.04C335.567 69.688 334.983 69.512 334.247 69.512C333.527 69.512 332.967 69.664 332.567 69.968C332.183 70.272 331.991 70.672 331.991 71.168C331.991 71.648 332.239 72.024 332.735 72.296C333.247 72.568 333.935 72.8 334.799 72.992C335.535 73.152 336.231 73.352 336.887 73.592C337.559 73.816 338.103 74.16 338.519 74.624C338.951 75.072 339.167 75.728 339.167 76.592C339.183 77.664 338.775 78.552 337.943 79.256C337.127 79.944 336.015 80.288 334.607 80.288ZM340.439 82.856L341.831 77.552H343.919L341.831 82.856H340.439ZM356.72 80V64.856H351.704V63.2H363.752V64.856H358.736V80H356.72ZM367.318 65.456C366.918 65.456 366.582 65.328 366.31 65.072C366.054 64.8 365.926 64.464 365.926 64.064C365.926 63.68 366.054 63.36 366.31 63.104C366.582 62.848 366.918 62.72 367.318 62.72C367.702 62.72 368.03 62.848 368.302 63.104C368.574 63.36 368.71 63.68 368.71 64.064C368.71 64.464 368.574 64.8 368.302 65.072C368.03 65.328 367.702 65.456 367.318 65.456ZM366.31 80V68.096H368.326V80H366.31ZM371.836 85.28V68.096H373.66L373.852 70.064C374.236 69.488 374.78 68.968 375.484 68.504C376.204 68.04 377.116 67.808 378.22 67.808C379.404 67.808 380.436 68.08 381.316 68.624C382.196 69.168 382.876 69.912 383.356 70.856C383.852 71.8 384.1 72.872 384.1 74.072C384.1 75.272 383.852 76.344 383.356 77.288C382.876 78.216 382.188 78.952 381.292 79.496C380.412 80.024 379.38 80.288 378.196 80.288C377.22 80.288 376.348 80.088 375.58 79.688C374.828 79.288 374.252 78.728 373.852 78.008V85.28H371.836ZM377.98 78.536C378.78 78.536 379.484 78.352 380.092 77.984C380.7 77.6 381.18 77.072 381.532 76.4C381.884 75.728 382.06 74.944 382.06 74.048C382.06 73.152 381.884 72.368 381.532 71.696C381.18 71.024 380.7 70.504 380.092 70.136C379.484 69.752 378.78 69.56 377.98 69.56C377.18 69.56 376.476 69.752 375.868 70.136C375.26 70.504 374.78 71.024 374.428 71.696C374.076 72.368 373.9 73.152 373.9 74.048C373.9 74.944 374.076 75.728 374.428 76.4C374.78 77.072 375.26 77.6 375.868 77.984C376.476 78.352 377.18 78.536 377.98 78.536ZM386.906 85.28V68.096H388.73L388.922 70.064C389.306 69.488 389.85 68.968 390.554 68.504C391.274 68.04 392.186 67.808 393.29 67.808C394.474 67.808 395.506 68.08 396.386 68.624C397.266 69.168 397.946 69.912 398.426 70.856C398.922 71.8 399.17 72.872 399.17 74.072C399.17 75.272 398.922 76.344 398.426 77.288C397.946 78.216 397.258 78.952 396.362 79.496C395.482 80.024 394.45 80.288 393.266 80.288C392.29 80.288 391.418 80.088 390.65 79.688C389.898 79.288 389.322 78.728 388.922 78.008V85.28H386.906ZM393.05 78.536C393.85 78.536 394.554 78.352 395.162 77.984C395.77 77.6 396.25 77.072 396.602 76.4C396.954 75.728 397.13 74.944 397.13 74.048C397.13 73.152 396.954 72.368 396.602 71.696C396.25 71.024 395.77 70.504 395.162 70.136C394.554 69.752 393.85 69.56 393.05 69.56C392.25 69.56 391.546 69.752 390.938 70.136C390.33 70.504 389.85 71.024 389.498 71.696C389.146 72.368 388.97 73.152 388.97 74.048C388.97 74.944 389.146 75.728 389.498 76.4C389.85 77.072 390.33 77.6 390.938 77.984C391.546 78.352 392.25 78.536 393.05 78.536ZM407.328 80.288C406.192 80.288 405.184 80.032 404.304 79.52C403.424 78.992 402.728 78.264 402.216 77.336C401.72 76.408 401.472 75.312 401.472 74.048C401.472 72.8 401.72 71.712 402.216 70.784C402.712 69.84 403.4 69.112 404.28 68.6C405.176 68.072 406.208 67.808 407.376 67.808C408.528 67.808 409.52 68.072 410.352 68.6C411.2 69.112 411.848 69.792 412.296 70.64C412.744 71.488 412.968 72.4 412.968 73.376C412.968 73.552 412.96 73.728 412.944 73.904C412.944 74.08 412.944 74.28 412.944 74.504H403.464C403.512 75.416 403.72 76.176 404.088 76.784C404.472 77.376 404.944 77.824 405.504 78.128C406.08 78.432 406.688 78.584 407.328 78.584C408.16 78.584 408.856 78.392 409.416 78.008C409.976 77.624 410.384 77.104 410.64 76.448H412.632C412.312 77.552 411.696 78.472 410.784 79.208C409.888 79.928 408.736 80.288 407.328 80.288ZM407.328 69.512C406.368 69.512 405.512 69.808 404.76 70.4C404.024 70.976 403.6 71.824 403.488 72.944H410.976C410.928 71.872 410.56 71.032 409.872 70.424C409.184 69.816 408.336 69.512 407.328 69.512ZM415.64 80V68.096H417.464L417.632 70.376C418 69.592 418.56 68.968 419.312 68.504C420.064 68.04 420.992 67.808 422.096 67.808V69.92H421.544C420.84 69.92 420.192 70.048 419.6 70.304C419.008 70.544 418.536 70.96 418.184 71.552C417.832 72.144 417.656 72.96 417.656 74V80H415.64ZM428.919 80.288C427.495 80.288 426.311 79.928 425.367 79.208C424.423 78.488 423.871 77.512 423.711 76.28H425.775C425.903 76.904 426.231 77.448 426.759 77.912C427.303 78.36 428.031 78.584 428.943 78.584C429.791 78.584 430.415 78.408 430.815 78.056C431.215 77.688 431.415 77.256 431.415 76.76C431.415 76.04 431.151 75.56 430.623 75.32C430.111 75.08 429.383 74.864 428.439 74.672C427.799 74.544 427.159 74.36 426.519 74.12C425.879 73.88 425.343 73.544 424.911 73.112C424.479 72.664 424.263 72.08 424.263 71.36C424.263 70.32 424.647 69.472 425.415 68.816C426.199 68.144 427.255 67.808 428.583 67.808C429.847 67.808 430.879 68.128 431.679 68.768C432.495 69.392 432.967 70.288 433.095 71.456H431.103C431.023 70.848 430.759 70.376 430.311 70.04C429.879 69.688 429.295 69.512 428.559 69.512C427.839 69.512 427.279 69.664 426.879 69.968C426.495 70.272 426.303 70.672 426.303 71.168C426.303 71.648 426.551 72.024 427.047 72.296C427.559 72.568 428.247 72.8 429.111 72.992C429.847 73.152 430.543 73.352 431.199 73.592C431.871 73.816 432.415 74.16 432.831 74.624C433.263 75.072 433.479 75.728 433.479 76.592C433.495 77.664 433.087 78.552 432.255 79.256C431.439 79.944 430.327 80.288 428.919 80.288ZM434.751 82.856L436.143 77.552H438.231L436.143 82.856H434.751Z" fill="#263238"/>
</svg>
