<svg width="211" height="27" viewBox="0 0 211 27" fill="none" xmlns="http://www.w3.org/2000/svg">
<path d="M0.664 26V0.799998H4.192L13.264 18.368L22.264 0.799998H25.828V26H22.804V6.2L14.38 22.4H12.112L3.688 6.236V26H0.664ZM39.1725 26.432C37.3245 26.432 35.7165 26.096 34.3485 25.424C32.9805 24.752 31.9245 23.816 31.1805 22.616C30.4365 21.416 30.0645 20.024 30.0645 18.44H33.2325C33.2325 19.424 33.4605 20.336 33.9165 21.176C34.3725 21.992 35.0325 22.652 35.8965 23.156C36.7845 23.636 37.8765 23.876 39.1725 23.876C40.8765 23.876 42.1965 23.468 43.1325 22.652C44.0685 21.836 44.5365 20.816 44.5365 19.592C44.5365 18.584 44.3205 17.78 43.8885 17.18C43.4565 16.556 42.8685 16.052 42.1245 15.668C41.4045 15.284 40.5645 14.948 39.6045 14.66C38.6685 14.372 37.6845 14.048 36.6525 13.688C34.7085 13.016 33.2685 12.188 32.3325 11.204C31.3965 10.196 30.9285 8.888 30.9285 7.28C30.9045 5.936 31.2165 4.748 31.8645 3.716C32.5125 2.66 33.4245 1.844 34.6005 1.268C35.8005 0.667999 37.2165 0.368 38.8485 0.368C40.4565 0.368 41.8485 0.667999 43.0245 1.268C44.2245 1.868 45.1485 2.696 45.7965 3.752C46.4685 4.808 46.8165 6.008 46.8405 7.352H43.6725C43.6725 6.656 43.4925 5.972 43.1325 5.3C42.7725 4.604 42.2205 4.04 41.4765 3.608C40.7565 3.176 39.8445 2.96 38.7405 2.96C37.3725 2.936 36.2445 3.284 35.3565 4.004C34.4925 4.724 34.0605 5.72 34.0605 6.992C34.0605 8.072 34.3605 8.9 34.9605 9.476C35.5845 10.052 36.4485 10.532 37.5525 10.916C38.6565 11.276 39.9285 11.696 41.3685 12.176C42.5685 12.608 43.6485 13.112 44.6085 13.688C45.5685 14.264 46.3125 15.008 46.8405 15.92C47.3925 16.832 47.6685 17.996 47.6685 19.412C47.6685 20.612 47.3565 21.752 46.7325 22.832C46.1085 23.888 45.1605 24.752 43.8885 25.424C42.6405 26.096 41.0685 26.432 39.1725 26.432ZM72.5363 26.432C70.0643 26.432 67.9283 25.892 66.1283 24.812C64.3523 23.708 62.9723 22.184 61.9883 20.24C61.0043 18.272 60.5123 15.992 60.5123 13.4C60.5123 10.832 61.0043 8.576 61.9883 6.632C62.9723 4.664 64.3523 3.128 66.1283 2.024C67.9283 0.92 70.0643 0.368 72.5363 0.368C75.4163 0.368 77.7563 1.064 79.5563 2.456C81.3803 3.824 82.5443 5.744 83.0483 8.216H79.7003C79.3163 6.656 78.5243 5.408 77.3243 4.472C76.1483 3.512 74.5523 3.032 72.5363 3.032C70.7363 3.032 69.1643 3.452 67.8203 4.292C66.4763 5.108 65.4323 6.296 64.6883 7.856C63.9683 9.392 63.6083 11.24 63.6083 13.4C63.6083 15.56 63.9683 17.42 64.6883 18.98C65.4323 20.516 66.4763 21.704 67.8203 22.544C69.1643 23.36 70.7363 23.768 72.5363 23.768C74.5523 23.768 76.1483 23.312 77.3243 22.4C78.5243 21.464 79.3163 20.228 79.7003 18.692H83.0483C82.5443 21.116 81.3803 23.012 79.5563 24.38C77.7563 25.748 75.4163 26.432 72.5363 26.432ZM87.2145 26V0.079999H90.2385V11.204C90.8385 10.1 91.6905 9.248 92.7945 8.648C93.8985 8.024 95.0985 7.712 96.3945 7.712C98.4585 7.712 100.114 8.36 101.362 9.656C102.61 10.928 103.234 12.896 103.234 15.56V26H100.246V15.884C100.246 12.164 98.7465 10.304 95.7465 10.304C94.1865 10.304 92.8785 10.868 91.8225 11.996C90.7665 13.1 90.2385 14.684 90.2385 16.748V26H87.2145ZM113.756 26.432C112.268 26.432 111.032 26.18 110.048 25.676C109.064 25.172 108.332 24.5 107.852 23.66C107.372 22.82 107.132 21.908 107.132 20.924C107.132 19.1 107.828 17.696 109.22 16.712C110.612 15.728 112.508 15.236 114.908 15.236H119.732V15.02C119.732 13.46 119.324 12.284 118.508 11.492C117.692 10.676 116.6 10.268 115.232 10.268C114.056 10.268 113.036 10.568 112.172 11.168C111.332 11.744 110.804 12.596 110.588 13.724H107.492C107.612 12.428 108.044 11.336 108.788 10.448C109.556 9.56 110.504 8.888 111.632 8.432C112.76 7.952 113.96 7.712 115.232 7.712C117.728 7.712 119.6 8.384 120.848 9.728C122.12 11.048 122.756 12.812 122.756 15.02V26H120.056L119.876 22.796C119.372 23.804 118.628 24.668 117.644 25.388C116.684 26.084 115.388 26.432 113.756 26.432ZM114.224 23.876C115.376 23.876 116.36 23.576 117.176 22.976C118.016 22.376 118.652 21.596 119.084 20.636C119.516 19.676 119.732 18.668 119.732 17.612V17.576H115.16C113.384 17.576 112.124 17.888 111.38 18.512C110.66 19.112 110.3 19.868 110.3 20.78C110.3 21.716 110.636 22.472 111.308 23.048C112.004 23.6 112.976 23.876 114.224 23.876ZM127.293 26V8.144H130.029L130.209 11.348C130.785 10.22 131.613 9.332 132.693 8.684C133.773 8.036 134.997 7.712 136.365 7.712C138.477 7.712 140.157 8.36 141.405 9.656C142.677 10.928 143.313 12.896 143.313 15.56V26H140.289V15.884C140.289 12.164 138.753 10.304 135.681 10.304C134.145 10.304 132.861 10.868 131.829 11.996C130.821 13.1 130.317 14.684 130.317 16.748V26H127.293ZM147.894 26V8.144H150.63L150.81 11.348C151.386 10.22 152.214 9.332 153.294 8.684C154.374 8.036 155.598 7.712 156.966 7.712C159.078 7.712 160.758 8.36 162.006 9.656C163.278 10.928 163.914 12.896 163.914 15.56V26H160.89V15.884C160.89 12.164 159.354 10.304 156.282 10.304C154.746 10.304 153.462 10.868 152.43 11.996C151.422 13.1 150.918 14.684 150.918 16.748V26H147.894ZM176.524 26.432C174.82 26.432 173.308 26.048 171.988 25.28C170.668 24.488 169.624 23.396 168.856 22.004C168.112 20.612 167.74 18.968 167.74 17.072C167.74 15.2 168.112 13.568 168.856 12.176C169.6 10.76 170.632 9.668 171.952 8.9C173.296 8.108 174.844 7.712 176.596 7.712C178.324 7.712 179.812 8.108 181.06 8.9C182.332 9.668 183.304 10.688 183.976 11.96C184.648 13.232 184.984 14.6 184.984 16.064C184.984 16.328 184.972 16.592 184.948 16.856C184.948 17.12 184.948 17.42 184.948 17.756H170.728C170.8 19.124 171.112 20.264 171.664 21.176C172.24 22.064 172.948 22.736 173.788 23.192C174.652 23.648 175.564 23.876 176.524 23.876C177.772 23.876 178.816 23.588 179.656 23.012C180.496 22.436 181.108 21.656 181.492 20.672H184.48C184 22.328 183.076 23.708 181.708 24.812C180.364 25.892 178.636 26.432 176.524 26.432ZM176.524 10.268C175.084 10.268 173.8 10.712 172.672 11.6C171.568 12.464 170.932 13.736 170.764 15.416H181.996C181.924 13.808 181.372 12.548 180.34 11.636C179.308 10.724 178.036 10.268 176.524 10.268ZM188.992 26V0.079999H192.016V26H188.992ZM203.812 26.432C201.676 26.432 199.9 25.892 198.484 24.812C197.068 23.732 196.24 22.268 196 20.42H199.096C199.288 21.356 199.78 22.172 200.572 22.868C201.388 23.54 202.48 23.876 203.848 23.876C205.12 23.876 206.056 23.612 206.656 23.084C207.256 22.532 207.556 21.884 207.556 21.14C207.556 20.06 207.16 19.34 206.368 18.98C205.6 18.62 204.508 18.296 203.092 18.008C202.132 17.816 201.172 17.54 200.212 17.18C199.252 16.82 198.448 16.316 197.8 15.668C197.152 14.996 196.828 14.12 196.828 13.04C196.828 11.48 197.404 10.208 198.556 9.224C199.732 8.216 201.316 7.712 203.308 7.712C205.204 7.712 206.752 8.192 207.952 9.152C209.176 10.088 209.884 11.432 210.076 13.184H207.088C206.968 12.272 206.572 11.564 205.9 11.06C205.252 10.532 204.376 10.268 203.272 10.268C202.192 10.268 201.352 10.496 200.752 10.952C200.176 11.408 199.888 12.008 199.888 12.752C199.888 13.472 200.26 14.036 201.004 14.444C201.772 14.852 202.804 15.2 204.1 15.488C205.204 15.728 206.248 16.028 207.232 16.388C208.24 16.724 209.056 17.24 209.68 17.936C210.328 18.608 210.652 19.592 210.652 20.888C210.676 22.496 210.064 23.828 208.816 24.884C207.592 25.916 205.924 26.432 203.812 26.432Z" fill="black"/>
</svg>
