<svg width="109" height="21" viewBox="0 0 109 21" fill="none" xmlns="http://www.w3.org/2000/svg">
<path d="M13.8037 17H10.8174L8.35742 12.875C8.13542 12.4954 7.91699 12.1732 7.70215 11.9082C7.49447 11.6361 7.27962 11.4141 7.05762 11.2422C6.84277 11.0703 6.60645 10.945 6.34863 10.8662C6.09082 10.7874 5.80078 10.748 5.47852 10.748H4.44727V17H1.90137V1.5957H6.97168C7.69499 1.5957 8.361 1.68164 8.96973 1.85352C9.57845 2.02539 10.1084 2.28678 10.5596 2.6377C11.0107 2.98145 11.3617 3.41471 11.6123 3.9375C11.8701 4.45312 11.999 5.05827 11.999 5.75293C11.999 6.2972 11.9167 6.7985 11.752 7.25684C11.5944 7.70801 11.3652 8.11263 11.0645 8.4707C10.7708 8.82161 10.4128 9.1224 9.99023 9.37305C9.57487 9.6237 9.10579 9.81706 8.58301 9.95312V9.99609C8.8623 10.1536 9.10579 10.3291 9.31348 10.5225C9.52116 10.7087 9.7181 10.902 9.9043 11.1025C10.0905 11.3031 10.2731 11.5322 10.4521 11.79C10.6383 12.0407 10.8424 12.3343 11.0645 12.6709L13.8037 17ZM4.44727 3.66895V8.6748H6.57422C6.9681 8.6748 7.32975 8.61393 7.65918 8.49219C7.99577 8.37044 8.28581 8.19499 8.5293 7.96582C8.77279 7.73665 8.96257 7.45736 9.09863 7.12793C9.2347 6.7985 9.30273 6.42969 9.30273 6.02148C9.30273 5.28385 9.06999 4.70736 8.60449 4.29199C8.139 3.87663 7.4694 3.66895 6.5957 3.66895H4.44727ZM24.0625 12.1768H16.5645C16.5931 13.1937 16.9046 13.9779 17.499 14.5293C18.1006 15.0807 18.9242 15.3564 19.9697 15.3564C21.1442 15.3564 22.222 15.0055 23.2031 14.3037V16.3125C22.2005 16.9427 20.8757 17.2578 19.2285 17.2578C17.61 17.2578 16.3389 16.7601 15.415 15.7646C14.4984 14.762 14.04 13.3548 14.04 11.543C14.04 9.83138 14.5449 8.43848 15.5547 7.36426C16.5716 6.28288 17.832 5.74219 19.3359 5.74219C20.8398 5.74219 22.0036 6.22559 22.8271 7.19238C23.6507 8.15918 24.0625 9.50195 24.0625 11.2207V12.1768ZM21.6562 10.415C21.6491 9.51986 21.4378 8.8252 21.0225 8.33105C20.6071 7.82975 20.0342 7.5791 19.3037 7.5791C18.5876 7.5791 17.9788 7.84049 17.4775 8.36328C16.9834 8.88607 16.679 9.56999 16.5645 10.415H21.6562ZM34.8799 17H32.4629V15.2812H32.4199C31.6608 16.599 30.5472 17.2578 29.0791 17.2578C27.9977 17.2578 27.1491 16.9642 26.5332 16.377C25.9245 15.7897 25.6201 15.0127 25.6201 14.0459C25.6201 11.9691 26.8161 10.7588 29.208 10.415L32.4736 9.95312C32.4736 8.38477 31.7288 7.60059 30.2393 7.60059C28.9287 7.60059 27.7471 8.05176 26.6943 8.9541V6.77344C27.8545 6.08594 29.1937 5.74219 30.7119 5.74219C33.4906 5.74219 34.8799 7.11003 34.8799 9.8457V17ZM32.4736 11.5967L30.1641 11.9189C29.4479 12.012 28.9072 12.1875 28.542 12.4453C28.1839 12.696 28.0049 13.14 28.0049 13.7773C28.0049 14.2428 28.1696 14.626 28.499 14.9268C28.8356 15.2204 29.2832 15.3672 29.8418 15.3672C30.6009 15.3672 31.2275 15.1022 31.7217 14.5723C32.223 14.0352 32.4736 13.362 32.4736 12.5527V11.5967ZM47.9316 17H45.4395V15.1309H45.3965C44.5944 16.5488 43.359 17.2578 41.6904 17.2578C40.3369 17.2578 39.252 16.7673 38.4355 15.7861C37.6263 14.7979 37.2217 13.4551 37.2217 11.7578C37.2217 9.9388 37.6693 8.48145 38.5645 7.38574C39.4668 6.29004 40.6663 5.74219 42.1631 5.74219C43.6455 5.74219 44.7233 6.33659 45.3965 7.52539H45.4395V0.714844H47.9316V17ZM45.4717 11.9727V10.5332C45.4717 9.7526 45.2174 9.09017 44.709 8.5459C44.2005 8.00163 43.5524 7.72949 42.7646 7.72949C41.8337 7.72949 41.0996 8.07682 40.5625 8.77148C40.0326 9.46615 39.7676 10.4294 39.7676 11.6611C39.7676 12.7783 40.0218 13.6628 40.5303 14.3145C41.0459 14.959 41.737 15.2812 42.6035 15.2812C43.4557 15.2812 44.1468 14.9697 44.6768 14.3467C45.2067 13.7165 45.4717 12.9251 45.4717 11.9727ZM74.0674 17H71.5322V7.03125C71.5322 6.21484 71.5824 5.21582 71.6826 4.03418H71.6396C71.4821 4.70736 71.3424 5.19076 71.2207 5.48438L66.623 17H64.8613L60.2529 5.57031C60.124 5.23372 59.988 4.72168 59.8447 4.03418H59.8018C59.859 4.65007 59.8877 5.65625 59.8877 7.05273V17H57.5244V1.5957H61.123L65.1729 11.8545C65.4808 12.6423 65.6813 13.2295 65.7744 13.6162H65.8281C66.0931 12.807 66.3079 12.2054 66.4727 11.8115L70.5977 1.5957H74.0674V17ZM82.4678 17.2578C80.7705 17.2578 79.4134 16.7458 78.3965 15.7217C77.3867 14.6904 76.8818 13.3262 76.8818 11.6289C76.8818 9.78125 77.4082 8.33822 78.4609 7.2998C79.5208 6.26139 80.946 5.74219 82.7363 5.74219C84.4551 5.74219 85.7943 6.24707 86.7539 7.25684C87.7135 8.2666 88.1934 9.66667 88.1934 11.457C88.1934 13.2116 87.6742 14.6188 86.6357 15.6787C85.6045 16.7314 84.2152 17.2578 82.4678 17.2578ZM82.5859 7.72949C81.612 7.72949 80.8421 8.06966 80.2764 8.75C79.7106 9.43034 79.4277 10.3685 79.4277 11.5645C79.4277 12.7174 79.7142 13.627 80.2871 14.293C80.86 14.9518 81.6263 15.2812 82.5859 15.2812C83.5671 15.2812 84.319 14.9554 84.8418 14.3037C85.3717 13.652 85.6367 12.7246 85.6367 11.5215C85.6367 10.3112 85.3717 9.37663 84.8418 8.71777C84.319 8.05892 83.5671 7.72949 82.5859 7.72949ZM97.1201 8.37402C96.8193 8.1377 96.3861 8.01953 95.8203 8.01953C95.0827 8.01953 94.4668 8.35254 93.9727 9.01855C93.4785 9.68457 93.2314 10.5905 93.2314 11.7363V17H90.7393V6H93.2314V8.2666H93.2744C93.5179 7.49316 93.8903 6.8916 94.3916 6.46191C94.9001 6.02507 95.4658 5.80664 96.0889 5.80664C96.54 5.80664 96.8838 5.87467 97.1201 6.01074V8.37402ZM108.002 12.1768H100.504C100.533 13.1937 100.844 13.9779 101.438 14.5293C102.04 15.0807 102.864 15.3564 103.909 15.3564C105.084 15.3564 106.161 15.0055 107.143 14.3037V16.3125C106.14 16.9427 104.815 17.2578 103.168 17.2578C101.549 17.2578 100.278 16.7601 99.3545 15.7646C98.4378 14.762 97.9795 13.3548 97.9795 11.543C97.9795 9.83138 98.4844 8.43848 99.4941 7.36426C100.511 6.28288 101.771 5.74219 103.275 5.74219C104.779 5.74219 105.943 6.22559 106.767 7.19238C107.59 8.15918 108.002 9.50195 108.002 11.2207V12.1768ZM105.596 10.415C105.589 9.51986 105.377 8.8252 104.962 8.33105C104.547 7.82975 103.974 7.5791 103.243 7.5791C102.527 7.5791 101.918 7.84049 101.417 8.36328C100.923 8.88607 100.618 9.56999 100.504 10.415H105.596Z" fill="#263238"/>
<path d="M0 19.5459H108.754V20.8242H0V19.5459Z" fill="#263238"/>
</svg>
